<svg xmlns="http://www.w3.org/2000/svg" viewBox="0 0 960 540" role="img" aria-labelledby="title desc"><title id="title">Agnes Solitaire visual guide</title><desc id="desc">Seed foundations define the starting rank. Deal reserve cards carefully, then use tableau spaces around the seed rank.</desc><defs><marker id="arrow" markerWidth="12" markerHeight="12" refX="10" refY="6" orient="auto"><path d="M2,2 L10,6 L2,10 Z" fill="#f0b31a"/></marker><pattern id="felt" width="24" height="24" patternUnits="userSpaceOnUse"><rect width="24" height="24" fill="#0f5924"/><path d="M0 12 H24 M12 0 V24" stroke="#1a6d31" stroke-width="1" opacity=".45"/></pattern><linearGradient id="wood" x1="0" x2="1"><stop offset="0" stop-color="#d4b487"/><stop offset="1" stop-color="#a7774b"/></linearGradient></defs><rect width="960" height="540" fill="url(#felt)"/><rect x="24" y="24" width="912" height="492" rx="20" fill="rgba(255,255,255,.08)" stroke="rgba(255,255,255,.28)"/><text x="480" y="58" text-anchor="middle" font-family="Arial, Helvetica, sans-serif" font-size="30" font-weight="800" fill="#fff">Agnes Solitaire</text><rect x="530" y="82" width="80" height="112" rx="12" fill="#ffffff" stroke="#e4f0dc" stroke-width="3"/><g><rect x="535" y="90" width="70" height="98" rx="8" fill="#fffaf0" stroke="#273529" stroke-width="3"/><text x="547" y="118" font-family="Arial" font-size="24" font-weight="700" fill="#c9222e">AH</text></g><rect x="626" y="82" width="80" height="112" rx="12" fill="#ffffff" stroke="#e4f0dc" stroke-width="3"/><g><rect x="631" y="90" width="70" height="98" rx="8" fill="#fffaf0" stroke="#273529" stroke-width="3"/><text x="643" y="118" font-family="Arial" font-size="24" font-weight="700" fill="#c9222e">2H</text></g><rect x="722" y="82" width="80" height="112" rx="12" fill="#ffffff" stroke="#e4f0dc" stroke-width="3"/><g><rect x="727" y="90" width="70" height="98" rx="8" fill="#fffaf0" stroke="#273529" stroke-width="3"/><text x="739" y="118" font-family="Arial" font-size="24" font-weight="700" fill="#c9222e">3H</text></g><rect x="818" y="82" width="80" height="112" rx="12" fill="#ffffff" stroke="#e4f0dc" stroke-width="3"/><g><rect x="823" y="90" width="70" height="98" rx="8" fill="#fffaf0" stroke="#273529" stroke-width="3"/><text x="835" y="118" font-family="Arial" font-size="24" font-weight="700" fill="#c9222e">4H</text></g><rect x="530" y="204" width="368" height="28" rx="4" fill="#2d9650"/><text x="714" y="225" text-anchor="middle" font-family="Arial, Helvetica, sans-serif" font-size="17" font-weight="700" fill="#fff">Seed-rank foundations</text><rect x="85" y="84" width="370" height="116" rx="12" fill="#eef7ff" stroke="#82b7d6" stroke-width="3"/><text x="270" y="149" text-anchor="middle" font-family="Arial, Helvetica, sans-serif" font-size="18" font-weight="700" fill="#214b2a">Reserve: deal seven top cards</text><g><rect x="100" y="96" width="70" height="98" rx="8" fill="#fffaf0" stroke="#273529" stroke-width="3"/><text x="112" y="124" font-family="Arial" font-size="24" font-weight="700" fill="#151515">6C</text></g><g><rect x="185" y="96" width="70" height="98" rx="8" fill="#fffaf0" stroke="#273529" stroke-width="3"/><text x="197" y="124" font-family="Arial" font-size="24" font-weight="700" fill="#c9222e">JH</text></g><g><rect x="270" y="96" width="70" height="98" rx="8" fill="#fffaf0" stroke="#273529" stroke-width="3"/><text x="282" y="124" font-family="Arial" font-size="24" font-weight="700" fill="#c9222e">2D</text></g><g><rect x="355" y="96" width="70" height="98" rx="8" fill="#fffaf0" stroke="#273529" stroke-width="3"/><text x="367" y="124" font-family="Arial" font-size="24" font-weight="700" fill="#151515">KS</text></g><g><g><rect x="120" y="300" width="70" height="98" rx="8" fill="#d92832" stroke="#fff" stroke-width="3"/><text x="132" y="328" font-family="Arial" font-size="24" font-weight="700" fill="#fff"></text><path d="M136 350 h38 m-38 14 h38" stroke="#fff" stroke-width="5"/></g><g><rect x="120" y="336" width="70" height="98" rx="8" fill="#fffaf0" stroke="#273529" stroke-width="3"/><text x="132" y="364" font-family="Arial" font-size="24" font-weight="700" fill="#151515">7C</text></g></g><g><g><rect x="216" y="300" width="70" height="98" rx="8" fill="#d92832" stroke="#fff" stroke-width="3"/><text x="228" y="328" font-family="Arial" font-size="24" font-weight="700" fill="#fff"></text><path d="M232 350 h38 m-38 14 h38" stroke="#fff" stroke-width="5"/></g><g><rect x="216" y="328" width="70" height="98" rx="8" fill="#d92832" stroke="#fff" stroke-width="3"/><text x="228" y="356" font-family="Arial" font-size="24" font-weight="700" fill="#fff"></text><path d="M232 378 h38 m-38 14 h38" stroke="#fff" stroke-width="5"/></g></g><g><g><rect x="312" y="300" width="70" height="98" rx="8" fill="#d92832" stroke="#fff" stroke-width="3"/><text x="324" y="328" font-family="Arial" font-size="24" font-weight="700" fill="#fff"></text><path d="M328 350 h38 m-38 14 h38" stroke="#fff" stroke-width="5"/></g><g><rect x="312" y="336" width="70" height="98" rx="8" fill="#fffaf0" stroke="#273529" stroke-width="3"/><text x="324" y="364" font-family="Arial" font-size="24" font-weight="700" fill="#c9222e">KD</text></g></g><g><g><rect x="408" y="300" width="70" height="98" rx="8" fill="#d92832" stroke="#fff" stroke-width="3"/><text x="420" y="328" font-family="Arial" font-size="24" font-weight="700" fill="#fff"></text><path d="M424 350 h38 m-38 14 h38" stroke="#fff" stroke-width="5"/></g><g><rect x="408" y="328" width="70" height="98" rx="8" fill="#d92832" stroke="#fff" stroke-width="3"/><text x="420" y="356" font-family="Arial" font-size="24" font-weight="700" fill="#fff"></text><path d="M424 378 h38 m-38 14 h38" stroke="#fff" stroke-width="5"/></g><g><rect x="408" y="362" width="70" height="98" rx="8" fill="#fffaf0" stroke="#273529" stroke-width="3"/><text x="420" y="390" font-family="Arial" font-size="24" font-weight="700" fill="#c9222e">QH</text></g></g><g><g><rect x="504" y="300" width="70" height="98" rx="8" fill="#d92832" stroke="#fff" stroke-width="3"/><text x="516" y="328" font-family="Arial" font-size="24" font-weight="700" fill="#fff"></text><path d="M520 350 h38 m-38 14 h38" stroke="#fff" stroke-width="5"/></g><g><rect x="504" y="336" width="70" height="98" rx="8" fill="#fffaf0" stroke="#273529" stroke-width="3"/><text x="516" y="364" font-family="Arial" font-size="24" font-weight="700" fill="#c9222e">4H</text></g><g><rect x="504" y="362" width="70" height="98" rx="8" fill="#fffaf0" stroke="#273529" stroke-width="3"/><text x="516" y="390" font-family="Arial" font-size="24" font-weight="700" fill="#c9222e">5D</text></g></g><g><g><rect x="600" y="300" width="70" height="98" rx="8" fill="#d92832" stroke="#fff" stroke-width="3"/><text x="612" y="328" font-family="Arial" font-size="24" font-weight="700" fill="#fff"></text><path d="M616 350 h38 m-38 14 h38" stroke="#fff" stroke-width="5"/></g><g><rect x="600" y="328" width="70" height="98" rx="8" fill="#d92832" stroke="#fff" stroke-width="3"/><text x="612" y="356" font-family="Arial" font-size="24" font-weight="700" fill="#fff"></text><path d="M616 378 h38 m-38 14 h38" stroke="#fff" stroke-width="5"/></g><g><rect x="600" y="362" width="70" height="98" rx="8" fill="#fffaf0" stroke="#273529" stroke-width="3"/><text x="612" y="390" font-family="Arial" font-size="24" font-weight="700" fill="#c9222e">3H</text></g></g><g><g><rect x="696" y="300" width="70" height="98" rx="8" fill="#d92832" stroke="#fff" stroke-width="3"/><text x="708" y="328" font-family="Arial" font-size="24" font-weight="700" fill="#fff"></text><path d="M712 350 h38 m-38 14 h38" stroke="#fff" stroke-width="5"/></g><g><rect x="696" y="336" width="70" height="98" rx="8" fill="#fffaf0" stroke="#273529" stroke-width="3"/><text x="708" y="364" font-family="Arial" font-size="24" font-weight="700" fill="#151515">8S</text></g><g><rect x="696" y="362" width="70" height="98" rx="8" fill="#fffaf0" stroke="#273529" stroke-width="3"/><text x="708" y="390" font-family="Arial" font-size="24" font-weight="700" fill="#151515">6S</text></g></g><path d="M705 190 C 680 190, 680 292, 655 292" fill="none" stroke="#f0b31a" stroke-width="5" marker-end="url(#arrow)"/><text x="680" y="229" text-anchor="middle" font-family="Arial, Helvetica, sans-serif" font-size="17" font-weight="700" fill="#6b4500">wrap ranks</text><text x="480" y="480" text-anchor="middle" font-family="Arial, Helvetica, sans-serif" font-size="21" font-weight="800" fill="#fff">Empty tableau spaces use the rank below the seed</text></svg>