<svg xmlns="http://www.w3.org/2000/svg" viewBox="0 0 960 540" role="img" aria-labelledby="title desc"><title id="title">Flower Garden visual guide</title><desc id="desc">Use bouquet cards to open garden spaces, then feed Aces through Kings to the foundations.</desc><defs><marker id="arrow" markerWidth="12" markerHeight="12" refX="10" refY="6" orient="auto"><path d="M2,2 L10,6 L2,10 Z" fill="#f0b31a"/></marker><pattern id="felt" width="24" height="24" patternUnits="userSpaceOnUse"><rect width="24" height="24" fill="#0f5924"/><path d="M0 12 H24 M12 0 V24" stroke="#1a6d31" stroke-width="1" opacity=".45"/></pattern><linearGradient id="wood" x1="0" x2="1"><stop offset="0" stop-color="#d4b487"/><stop offset="1" stop-color="#a7774b"/></linearGradient></defs><rect width="960" height="540" fill="url(#felt)"/><rect x="24" y="24" width="912" height="492" rx="20" fill="rgba(255,255,255,.08)" stroke="rgba(255,255,255,.28)"/><text x="480" y="58" text-anchor="middle" font-family="Arial, Helvetica, sans-serif" font-size="30" font-weight="800" fill="#fff">Flower Garden</text><rect x="550" y="90" width="80" height="112" rx="12" fill="#ffffff" stroke="#e4f0dc" stroke-width="3"/><g><rect x="555" y="98" width="70" height="98" rx="8" fill="#fffaf0" stroke="#273529" stroke-width="3"/><text x="567" y="126" font-family="Arial" font-size="24" font-weight="700" fill="#c9222e">AH</text></g><rect x="646" y="90" width="80" height="112" rx="12" fill="#ffffff" stroke="#e4f0dc" stroke-width="3"/><g><rect x="651" y="98" width="70" height="98" rx="8" fill="#fffaf0" stroke="#273529" stroke-width="3"/><text x="663" y="126" font-family="Arial" font-size="24" font-weight="700" fill="#c9222e">2H</text></g><rect x="742" y="90" width="80" height="112" rx="12" fill="#ffffff" stroke="#e4f0dc" stroke-width="3"/><g><rect x="747" y="98" width="70" height="98" rx="8" fill="#fffaf0" stroke="#273529" stroke-width="3"/><text x="759" y="126" font-family="Arial" font-size="24" font-weight="700" fill="#c9222e">3H</text></g><rect x="838" y="90" width="80" height="112" rx="12" fill="#ffffff" stroke="#e4f0dc" stroke-width="3"/><g><rect x="843" y="98" width="70" height="98" rx="8" fill="#fffaf0" stroke="#273529" stroke-width="3"/><text x="855" y="126" font-family="Arial" font-size="24" font-weight="700" fill="#c9222e">4H</text></g><rect x="550" y="212" width="368" height="28" rx="4" fill="#2d9650"/><text x="734" y="233" text-anchor="middle" font-family="Arial, Helvetica, sans-serif" font-size="17" font-weight="700" fill="#fff">Foundations</text><rect x="72" y="92" width="392" height="112" rx="12" fill="#eef7ff" stroke="#82b7d6" stroke-width="3"/><text x="268" y="155" text-anchor="middle" font-family="Arial, Helvetica, sans-serif" font-size="18" font-weight="700" fill="#214b2a">Bouquet: every card available</text><g><rect x="92" y="102" width="70" height="98" rx="8" fill="#fffaf0" stroke="#273529" stroke-width="3"/><text x="104" y="130" font-family="Arial" font-size="24" font-weight="700" fill="#151515">4C</text></g><g><rect x="178" y="102" width="70" height="98" rx="8" fill="#fffaf0" stroke="#273529" stroke-width="3"/><text x="190" y="130" font-family="Arial" font-size="24" font-weight="700" fill="#c9222e">9D</text></g><g><rect x="264" y="102" width="70" height="98" rx="8" fill="#fffaf0" stroke="#273529" stroke-width="3"/><text x="276" y="130" font-family="Arial" font-size="24" font-weight="700" fill="#151515">JS</text></g><g><rect x="350" y="102" width="70" height="98" rx="8" fill="#fffaf0" stroke="#273529" stroke-width="3"/><text x="362" y="130" font-family="Arial" font-size="24" font-weight="700" fill="#c9222e">6H</text></g><g><g><rect x="150" y="300" width="70" height="98" rx="8" fill="#d92832" stroke="#fff" stroke-width="3"/><text x="162" y="328" font-family="Arial" font-size="24" font-weight="700" fill="#fff"></text><path d="M166 350 h38 m-38 14 h38" stroke="#fff" stroke-width="5"/></g><g><rect x="150" y="336" width="70" height="98" rx="8" fill="#fffaf0" stroke="#273529" stroke-width="3"/><text x="162" y="364" font-family="Arial" font-size="24" font-weight="700" fill="#151515">7C</text></g></g><g><g><rect x="255" y="300" width="70" height="98" rx="8" fill="#d92832" stroke="#fff" stroke-width="3"/><text x="267" y="328" font-family="Arial" font-size="24" font-weight="700" fill="#fff"></text><path d="M271 350 h38 m-38 14 h38" stroke="#fff" stroke-width="5"/></g><g><rect x="255" y="328" width="70" height="98" rx="8" fill="#d92832" stroke="#fff" stroke-width="3"/><text x="267" y="356" font-family="Arial" font-size="24" font-weight="700" fill="#fff"></text><path d="M271 378 h38 m-38 14 h38" stroke="#fff" stroke-width="5"/></g></g><g><g><rect x="360" y="300" width="70" height="98" rx="8" fill="#d92832" stroke="#fff" stroke-width="3"/><text x="372" y="328" font-family="Arial" font-size="24" font-weight="700" fill="#fff"></text><path d="M376 350 h38 m-38 14 h38" stroke="#fff" stroke-width="5"/></g><g><rect x="360" y="336" width="70" height="98" rx="8" fill="#fffaf0" stroke="#273529" stroke-width="3"/><text x="372" y="364" font-family="Arial" font-size="24" font-weight="700" fill="#c9222e">KD</text></g></g><g><g><rect x="465" y="300" width="70" height="98" rx="8" fill="#d92832" stroke="#fff" stroke-width="3"/><text x="477" y="328" font-family="Arial" font-size="24" font-weight="700" fill="#fff"></text><path d="M481 350 h38 m-38 14 h38" stroke="#fff" stroke-width="5"/></g><g><rect x="465" y="328" width="70" height="98" rx="8" fill="#d92832" stroke="#fff" stroke-width="3"/><text x="477" y="356" font-family="Arial" font-size="24" font-weight="700" fill="#fff"></text><path d="M481 378 h38 m-38 14 h38" stroke="#fff" stroke-width="5"/></g><g><rect x="465" y="362" width="70" height="98" rx="8" fill="#fffaf0" stroke="#273529" stroke-width="3"/><text x="477" y="390" font-family="Arial" font-size="24" font-weight="700" fill="#c9222e">QH</text></g></g><g><g><rect x="570" y="300" width="70" height="98" rx="8" fill="#d92832" stroke="#fff" stroke-width="3"/><text x="582" y="328" font-family="Arial" font-size="24" font-weight="700" fill="#fff"></text><path d="M586 350 h38 m-38 14 h38" stroke="#fff" stroke-width="5"/></g><g><rect x="570" y="336" width="70" height="98" rx="8" fill="#fffaf0" stroke="#273529" stroke-width="3"/><text x="582" y="364" font-family="Arial" font-size="24" font-weight="700" fill="#c9222e">4H</text></g><g><rect x="570" y="362" width="70" height="98" rx="8" fill="#fffaf0" stroke="#273529" stroke-width="3"/><text x="582" y="390" font-family="Arial" font-size="24" font-weight="700" fill="#c9222e">5D</text></g></g><g><g><rect x="675" y="300" width="70" height="98" rx="8" fill="#d92832" stroke="#fff" stroke-width="3"/><text x="687" y="328" font-family="Arial" font-size="24" font-weight="700" fill="#fff"></text><path d="M691 350 h38 m-38 14 h38" stroke="#fff" stroke-width="5"/></g><g><rect x="675" y="328" width="70" height="98" rx="8" fill="#d92832" stroke="#fff" stroke-width="3"/><text x="687" y="356" font-family="Arial" font-size="24" font-weight="700" fill="#fff"></text><path d="M691 378 h38 m-38 14 h38" stroke="#fff" stroke-width="5"/></g><g><rect x="675" y="362" width="70" height="98" rx="8" fill="#fffaf0" stroke="#273529" stroke-width="3"/><text x="687" y="390" font-family="Arial" font-size="24" font-weight="700" fill="#c9222e">3H</text></g></g><rect x="145" y="440" width="610" height="30" rx="4" fill="#2d9650"/><text x="450" y="462" text-anchor="middle" font-family="Arial, Helvetica, sans-serif" font-size="17" font-weight="700" fill="#fff">Garden tableau: build down regardless of suit</text><path d="M310 205 C 262.5 205, 262.5 300, 215 300" fill="none" stroke="#f0b31a" stroke-width="5" marker-end="url(#arrow)"/><text x="262.5" y="240.5" text-anchor="middle" font-family="Arial, Helvetica, sans-serif" font-size="17" font-weight="700" fill="#6b4500">make an empty space</text></svg>