<svg xmlns="http://www.w3.org/2000/svg" viewBox="0 0 960 540" role="img" aria-labelledby="title desc"><title id="title">Forty Thieves visual guide</title><desc id="desc">Move one card at a time, build down by suit, and treat empty spaces like premium work areas.</desc><defs><marker id="arrow" markerWidth="12" markerHeight="12" refX="10" refY="6" orient="auto"><path d="M2,2 L10,6 L2,10 Z" fill="#f0b31a"/></marker><pattern id="felt" width="24" height="24" patternUnits="userSpaceOnUse"><rect width="24" height="24" fill="#0f5924"/><path d="M0 12 H24 M12 0 V24" stroke="#1a6d31" stroke-width="1" opacity=".45"/></pattern><linearGradient id="wood" x1="0" x2="1"><stop offset="0" stop-color="#d4b487"/><stop offset="1" stop-color="#a7774b"/></linearGradient></defs><rect width="960" height="540" fill="url(#felt)"/><rect x="24" y="24" width="912" height="492" rx="20" fill="rgba(255,255,255,.08)" stroke="rgba(255,255,255,.28)"/><text x="480" y="58" text-anchor="middle" font-family="Arial, Helvetica, sans-serif" font-size="30" font-weight="800" fill="#fff">Forty Thieves</text><rect x="575" y="80" width="80" height="112" rx="12" fill="#ffffff" stroke="#e4f0dc" stroke-width="3"/><g><rect x="580" y="88" width="70" height="98" rx="8" fill="#fffaf0" stroke="#273529" stroke-width="3"/><text x="592" y="116" font-family="Arial" font-size="24" font-weight="700" fill="#c9222e">AH</text></g><rect x="671" y="80" width="80" height="112" rx="12" fill="#ffffff" stroke="#e4f0dc" stroke-width="3"/><g><rect x="676" y="88" width="70" height="98" rx="8" fill="#fffaf0" stroke="#273529" stroke-width="3"/><text x="688" y="116" font-family="Arial" font-size="24" font-weight="700" fill="#c9222e">2H</text></g><rect x="767" y="80" width="80" height="112" rx="12" fill="#ffffff" stroke="#e4f0dc" stroke-width="3"/><g><rect x="772" y="88" width="70" height="98" rx="8" fill="#fffaf0" stroke="#273529" stroke-width="3"/><text x="784" y="116" font-family="Arial" font-size="24" font-weight="700" fill="#c9222e">3H</text></g><rect x="863" y="80" width="80" height="112" rx="12" fill="#ffffff" stroke="#e4f0dc" stroke-width="3"/><g><rect x="868" y="88" width="70" height="98" rx="8" fill="#fffaf0" stroke="#273529" stroke-width="3"/><text x="880" y="116" font-family="Arial" font-size="24" font-weight="700" fill="#c9222e">4H</text></g><rect x="575" y="202" width="368" height="28" rx="4" fill="#2d9650"/><text x="759" y="223" text-anchor="middle" font-family="Arial, Helvetica, sans-serif" font-size="17" font-weight="700" fill="#fff">8 foundations</text><rect x="92" y="88" width="90" height="118" rx="12" fill="#fff7e2" stroke="#2f7d40" stroke-width="3"/><text x="137" y="154" text-anchor="middle" font-family="Arial, Helvetica, sans-serif" font-size="18" font-weight="700" fill="#214b2a">Stock</text><g><rect x="102" y="98" width="70" height="98" rx="8" fill="#d92832" stroke="#fff" stroke-width="3"/><text x="114" y="126" font-family="Arial" font-size="24" font-weight="700" fill="#fff"></text><path d="M118 148 h38 m-38 14 h38" stroke="#fff" stroke-width="5"/></g><rect x="210" y="88" width="90" height="118" rx="12" fill="#fff7e2" stroke="#2f7d40" stroke-width="3"/><text x="255" y="154" text-anchor="middle" font-family="Arial, Helvetica, sans-serif" font-size="18" font-weight="700" fill="#214b2a">Waste</text><g><rect x="220" y="98" width="70" height="98" rx="8" fill="#fffaf0" stroke="#273529" stroke-width="3"/><text x="232" y="126" font-family="Arial" font-size="24" font-weight="700" fill="#151515">7S</text></g><g><g><rect x="50" y="288" width="70" height="98" rx="8" fill="#d92832" stroke="#fff" stroke-width="3"/><text x="62" y="316" font-family="Arial" font-size="24" font-weight="700" fill="#fff"></text><path d="M66 338 h38 m-38 14 h38" stroke="#fff" stroke-width="5"/></g><g><rect x="50" y="324" width="70" height="98" rx="8" fill="#fffaf0" stroke="#273529" stroke-width="3"/><text x="62" y="352" font-family="Arial" font-size="24" font-weight="700" fill="#151515">7C</text></g></g><g><g><rect x="134" y="288" width="70" height="98" rx="8" fill="#d92832" stroke="#fff" stroke-width="3"/><text x="146" y="316" font-family="Arial" font-size="24" font-weight="700" fill="#fff"></text><path d="M150 338 h38 m-38 14 h38" stroke="#fff" stroke-width="5"/></g><g><rect x="134" y="316" width="70" height="98" rx="8" fill="#d92832" stroke="#fff" stroke-width="3"/><text x="146" y="344" font-family="Arial" font-size="24" font-weight="700" fill="#fff"></text><path d="M150 366 h38 m-38 14 h38" stroke="#fff" stroke-width="5"/></g></g><g><g><rect x="218" y="288" width="70" height="98" rx="8" fill="#d92832" stroke="#fff" stroke-width="3"/><text x="230" y="316" font-family="Arial" font-size="24" font-weight="700" fill="#fff"></text><path d="M234 338 h38 m-38 14 h38" stroke="#fff" stroke-width="5"/></g><g><rect x="218" y="324" width="70" height="98" rx="8" fill="#fffaf0" stroke="#273529" stroke-width="3"/><text x="230" y="352" font-family="Arial" font-size="24" font-weight="700" fill="#c9222e">KD</text></g></g><g><g><rect x="302" y="288" width="70" height="98" rx="8" fill="#d92832" stroke="#fff" stroke-width="3"/><text x="314" y="316" font-family="Arial" font-size="24" font-weight="700" fill="#fff"></text><path d="M318 338 h38 m-38 14 h38" stroke="#fff" stroke-width="5"/></g><g><rect x="302" y="316" width="70" height="98" rx="8" fill="#d92832" stroke="#fff" stroke-width="3"/><text x="314" y="344" font-family="Arial" font-size="24" font-weight="700" fill="#fff"></text><path d="M318 366 h38 m-38 14 h38" stroke="#fff" stroke-width="5"/></g><g><rect x="302" y="350" width="70" height="98" rx="8" fill="#fffaf0" stroke="#273529" stroke-width="3"/><text x="314" y="378" font-family="Arial" font-size="24" font-weight="700" fill="#c9222e">QH</text></g></g><g><g><rect x="386" y="288" width="70" height="98" rx="8" fill="#d92832" stroke="#fff" stroke-width="3"/><text x="398" y="316" font-family="Arial" font-size="24" font-weight="700" fill="#fff"></text><path d="M402 338 h38 m-38 14 h38" stroke="#fff" stroke-width="5"/></g><g><rect x="386" y="324" width="70" height="98" rx="8" fill="#fffaf0" stroke="#273529" stroke-width="3"/><text x="398" y="352" font-family="Arial" font-size="24" font-weight="700" fill="#c9222e">4H</text></g><g><rect x="386" y="350" width="70" height="98" rx="8" fill="#fffaf0" stroke="#273529" stroke-width="3"/><text x="398" y="378" font-family="Arial" font-size="24" font-weight="700" fill="#c9222e">5D</text></g></g><g><g><rect x="470" y="288" width="70" height="98" rx="8" fill="#d92832" stroke="#fff" stroke-width="3"/><text x="482" y="316" font-family="Arial" font-size="24" font-weight="700" fill="#fff"></text><path d="M486 338 h38 m-38 14 h38" stroke="#fff" stroke-width="5"/></g><g><rect x="470" y="316" width="70" height="98" rx="8" fill="#d92832" stroke="#fff" stroke-width="3"/><text x="482" y="344" font-family="Arial" font-size="24" font-weight="700" fill="#fff"></text><path d="M486 366 h38 m-38 14 h38" stroke="#fff" stroke-width="5"/></g><g><rect x="470" y="350" width="70" height="98" rx="8" fill="#fffaf0" stroke="#273529" stroke-width="3"/><text x="482" y="378" font-family="Arial" font-size="24" font-weight="700" fill="#c9222e">3H</text></g></g><g><g><rect x="554" y="288" width="70" height="98" rx="8" fill="#d92832" stroke="#fff" stroke-width="3"/><text x="566" y="316" font-family="Arial" font-size="24" font-weight="700" fill="#fff"></text><path d="M570 338 h38 m-38 14 h38" stroke="#fff" stroke-width="5"/></g><g><rect x="554" y="324" width="70" height="98" rx="8" fill="#fffaf0" stroke="#273529" stroke-width="3"/><text x="566" y="352" font-family="Arial" font-size="24" font-weight="700" fill="#151515">8S</text></g><g><rect x="554" y="350" width="70" height="98" rx="8" fill="#fffaf0" stroke="#273529" stroke-width="3"/><text x="566" y="378" font-family="Arial" font-size="24" font-weight="700" fill="#151515">6S</text></g></g><g><g><rect x="638" y="288" width="70" height="98" rx="8" fill="#d92832" stroke="#fff" stroke-width="3"/><text x="650" y="316" font-family="Arial" font-size="24" font-weight="700" fill="#fff"></text><path d="M654 338 h38 m-38 14 h38" stroke="#fff" stroke-width="5"/></g><g><rect x="638" y="316" width="70" height="98" rx="8" fill="#d92832" stroke="#fff" stroke-width="3"/><text x="650" y="344" font-family="Arial" font-size="24" font-weight="700" fill="#fff"></text><path d="M654 366 h38 m-38 14 h38" stroke="#fff" stroke-width="5"/></g><g><rect x="638" y="350" width="70" height="98" rx="8" fill="#fffaf0" stroke="#273529" stroke-width="3"/><text x="650" y="378" font-family="Arial" font-size="24" font-weight="700" fill="#c9222e">AH</text></g></g><g><g><rect x="722" y="288" width="70" height="98" rx="8" fill="#d92832" stroke="#fff" stroke-width="3"/><text x="734" y="316" font-family="Arial" font-size="24" font-weight="700" fill="#fff"></text><path d="M738 338 h38 m-38 14 h38" stroke="#fff" stroke-width="5"/></g><g><rect x="722" y="324" width="70" height="98" rx="8" fill="#fffaf0" stroke="#273529" stroke-width="3"/><text x="734" y="352" font-family="Arial" font-size="24" font-weight="700" fill="#151515">9C</text></g><g><rect x="722" y="350" width="70" height="98" rx="8" fill="#fffaf0" stroke="#273529" stroke-width="3"/><text x="734" y="378" font-family="Arial" font-size="24" font-weight="700" fill="#c9222e">QH</text></g></g><g><g><rect x="806" y="288" width="70" height="98" rx="8" fill="#d92832" stroke="#fff" stroke-width="3"/><text x="818" y="316" font-family="Arial" font-size="24" font-weight="700" fill="#fff"></text><path d="M822 338 h38 m-38 14 h38" stroke="#fff" stroke-width="5"/></g><g><rect x="806" y="316" width="70" height="98" rx="8" fill="#d92832" stroke="#fff" stroke-width="3"/><text x="818" y="344" font-family="Arial" font-size="24" font-weight="700" fill="#fff"></text><path d="M822 366 h38 m-38 14 h38" stroke="#fff" stroke-width="5"/></g><g><rect x="806" y="350" width="70" height="98" rx="8" fill="#fffaf0" stroke="#273529" stroke-width="3"/><text x="818" y="378" font-family="Arial" font-size="24" font-weight="700" fill="#c9222e">5D</text></g></g><path d="M250 210 C 382.5 210, 382.5 318, 515 318" fill="none" stroke="#f0b31a" stroke-width="5" marker-end="url(#arrow)"/><text x="382.5" y="252" text-anchor="middle" font-family="Arial, Helvetica, sans-serif" font-size="17" font-weight="700" fill="#6b4500">one card only</text><text x="480" y="480" text-anchor="middle" font-family="Arial, Helvetica, sans-serif" font-size="22" font-weight="800" fill="#fff">Ten tableau piles build down by suit</text></svg>