<svg xmlns="http://www.w3.org/2000/svg" viewBox="0 0 960 540" role="img" aria-labelledby="title desc"><title id="title">Freecell visual guide</title><desc id="desc">Keep free cells open, build alternating runs, and use empty columns to move longer sequences.</desc><defs><marker id="arrow" markerWidth="12" markerHeight="12" refX="10" refY="6" orient="auto"><path d="M2,2 L10,6 L2,10 Z" fill="#f0b31a"/></marker><pattern id="felt" width="24" height="24" patternUnits="userSpaceOnUse"><rect width="24" height="24" fill="#0f5924"/><path d="M0 12 H24 M12 0 V24" stroke="#1a6d31" stroke-width="1" opacity=".45"/></pattern><linearGradient id="wood" x1="0" x2="1"><stop offset="0" stop-color="#d4b487"/><stop offset="1" stop-color="#a7774b"/></linearGradient></defs><rect width="960" height="540" fill="url(#felt)"/><rect x="24" y="24" width="912" height="492" rx="20" fill="rgba(255,255,255,.08)" stroke="rgba(255,255,255,.28)"/><text x="480" y="58" text-anchor="middle" font-family="Arial, Helvetica, sans-serif" font-size="30" font-weight="800" fill="#fff">Freecell</text><rect x="70" y="88" width="300" height="116" rx="12" fill="#eef7ff" stroke="#82b7d6" stroke-width="3"/><text x="220" y="153" text-anchor="middle" font-family="Arial, Helvetica, sans-serif" font-size="18" font-weight="700" fill="#214b2a">Free cells: temporary parking</text><g><rect x="88" y="98" width="70" height="98" rx="8" fill="#fffaf0" stroke="#273529" stroke-width="3"/><text x="100" y="126" font-family="Arial" font-size="24" font-weight="700" fill="#151515">7C</text></g><g><rect x="170" y="98" width="70" height="98" rx="8" fill="#fffaf0" stroke="#273529" stroke-width="3"/><text x="182" y="126" font-family="Arial" font-size="24" font-weight="700" fill="#c9222e">QD</text></g><rect x="500" y="88" width="80" height="112" rx="12" fill="#ffffff" stroke="#e4f0dc" stroke-width="3"/><g><rect x="505" y="96" width="70" height="98" rx="8" fill="#fffaf0" stroke="#273529" stroke-width="3"/><text x="517" y="124" font-family="Arial" font-size="24" font-weight="700" fill="#c9222e">AH</text></g><rect x="596" y="88" width="80" height="112" rx="12" fill="#ffffff" stroke="#e4f0dc" stroke-width="3"/><g><rect x="601" y="96" width="70" height="98" rx="8" fill="#fffaf0" stroke="#273529" stroke-width="3"/><text x="613" y="124" font-family="Arial" font-size="24" font-weight="700" fill="#c9222e">2H</text></g><rect x="692" y="88" width="80" height="112" rx="12" fill="#ffffff" stroke="#e4f0dc" stroke-width="3"/><g><rect x="697" y="96" width="70" height="98" rx="8" fill="#fffaf0" stroke="#273529" stroke-width="3"/><text x="709" y="124" font-family="Arial" font-size="24" font-weight="700" fill="#c9222e">3H</text></g><rect x="788" y="88" width="80" height="112" rx="12" fill="#ffffff" stroke="#e4f0dc" stroke-width="3"/><g><rect x="793" y="96" width="70" height="98" rx="8" fill="#fffaf0" stroke="#273529" stroke-width="3"/><text x="805" y="124" font-family="Arial" font-size="24" font-weight="700" fill="#c9222e">4H</text></g><rect x="500" y="210" width="368" height="28" rx="4" fill="#2d9650"/><text x="684" y="231" text-anchor="middle" font-family="Arial, Helvetica, sans-serif" font-size="17" font-weight="700" fill="#fff">Foundations</text><g><g><rect x="85" y="300" width="70" height="98" rx="8" fill="#d92832" stroke="#fff" stroke-width="3"/><text x="97" y="328" font-family="Arial" font-size="24" font-weight="700" fill="#fff"></text><path d="M101 350 h38 m-38 14 h38" stroke="#fff" stroke-width="5"/></g><g><rect x="85" y="336" width="70" height="98" rx="8" fill="#fffaf0" stroke="#273529" stroke-width="3"/><text x="97" y="364" font-family="Arial" font-size="24" font-weight="700" fill="#151515">7C</text></g></g><g><g><rect x="180" y="300" width="70" height="98" rx="8" fill="#d92832" stroke="#fff" stroke-width="3"/><text x="192" y="328" font-family="Arial" font-size="24" font-weight="700" fill="#fff"></text><path d="M196 350 h38 m-38 14 h38" stroke="#fff" stroke-width="5"/></g><g><rect x="180" y="328" width="70" height="98" rx="8" fill="#d92832" stroke="#fff" stroke-width="3"/><text x="192" y="356" font-family="Arial" font-size="24" font-weight="700" fill="#fff"></text><path d="M196 378 h38 m-38 14 h38" stroke="#fff" stroke-width="5"/></g></g><g><g><rect x="275" y="300" width="70" height="98" rx="8" fill="#d92832" stroke="#fff" stroke-width="3"/><text x="287" y="328" font-family="Arial" font-size="24" font-weight="700" fill="#fff"></text><path d="M291 350 h38 m-38 14 h38" stroke="#fff" stroke-width="5"/></g><g><rect x="275" y="336" width="70" height="98" rx="8" fill="#fffaf0" stroke="#273529" stroke-width="3"/><text x="287" y="364" font-family="Arial" font-size="24" font-weight="700" fill="#c9222e">KD</text></g></g><g><g><rect x="370" y="300" width="70" height="98" rx="8" fill="#d92832" stroke="#fff" stroke-width="3"/><text x="382" y="328" font-family="Arial" font-size="24" font-weight="700" fill="#fff"></text><path d="M386 350 h38 m-38 14 h38" stroke="#fff" stroke-width="5"/></g><g><rect x="370" y="328" width="70" height="98" rx="8" fill="#d92832" stroke="#fff" stroke-width="3"/><text x="382" y="356" font-family="Arial" font-size="24" font-weight="700" fill="#fff"></text><path d="M386 378 h38 m-38 14 h38" stroke="#fff" stroke-width="5"/></g><g><rect x="370" y="362" width="70" height="98" rx="8" fill="#fffaf0" stroke="#273529" stroke-width="3"/><text x="382" y="390" font-family="Arial" font-size="24" font-weight="700" fill="#c9222e">QH</text></g></g><g><g><rect x="465" y="300" width="70" height="98" rx="8" fill="#d92832" stroke="#fff" stroke-width="3"/><text x="477" y="328" font-family="Arial" font-size="24" font-weight="700" fill="#fff"></text><path d="M481 350 h38 m-38 14 h38" stroke="#fff" stroke-width="5"/></g><g><rect x="465" y="336" width="70" height="98" rx="8" fill="#fffaf0" stroke="#273529" stroke-width="3"/><text x="477" y="364" font-family="Arial" font-size="24" font-weight="700" fill="#c9222e">4H</text></g><g><rect x="465" y="362" width="70" height="98" rx="8" fill="#fffaf0" stroke="#273529" stroke-width="3"/><text x="477" y="390" font-family="Arial" font-size="24" font-weight="700" fill="#c9222e">5D</text></g></g><g><g><rect x="560" y="300" width="70" height="98" rx="8" fill="#d92832" stroke="#fff" stroke-width="3"/><text x="572" y="328" font-family="Arial" font-size="24" font-weight="700" fill="#fff"></text><path d="M576 350 h38 m-38 14 h38" stroke="#fff" stroke-width="5"/></g><g><rect x="560" y="328" width="70" height="98" rx="8" fill="#d92832" stroke="#fff" stroke-width="3"/><text x="572" y="356" font-family="Arial" font-size="24" font-weight="700" fill="#fff"></text><path d="M576 378 h38 m-38 14 h38" stroke="#fff" stroke-width="5"/></g><g><rect x="560" y="362" width="70" height="98" rx="8" fill="#fffaf0" stroke="#273529" stroke-width="3"/><text x="572" y="390" font-family="Arial" font-size="24" font-weight="700" fill="#c9222e">3H</text></g></g><g><g><rect x="655" y="300" width="70" height="98" rx="8" fill="#d92832" stroke="#fff" stroke-width="3"/><text x="667" y="328" font-family="Arial" font-size="24" font-weight="700" fill="#fff"></text><path d="M671 350 h38 m-38 14 h38" stroke="#fff" stroke-width="5"/></g><g><rect x="655" y="336" width="70" height="98" rx="8" fill="#fffaf0" stroke="#273529" stroke-width="3"/><text x="667" y="364" font-family="Arial" font-size="24" font-weight="700" fill="#151515">8S</text></g><g><rect x="655" y="362" width="70" height="98" rx="8" fill="#fffaf0" stroke="#273529" stroke-width="3"/><text x="667" y="390" font-family="Arial" font-size="24" font-weight="700" fill="#151515">6S</text></g></g><g><g><rect x="750" y="300" width="70" height="98" rx="8" fill="#d92832" stroke="#fff" stroke-width="3"/><text x="762" y="328" font-family="Arial" font-size="24" font-weight="700" fill="#fff"></text><path d="M766 350 h38 m-38 14 h38" stroke="#fff" stroke-width="5"/></g><g><rect x="750" y="328" width="70" height="98" rx="8" fill="#d92832" stroke="#fff" stroke-width="3"/><text x="762" y="356" font-family="Arial" font-size="24" font-weight="700" fill="#fff"></text><path d="M766 378 h38 m-38 14 h38" stroke="#fff" stroke-width="5"/></g><g><rect x="750" y="362" width="70" height="98" rx="8" fill="#fffaf0" stroke="#273529" stroke-width="3"/><text x="762" y="390" font-family="Arial" font-size="24" font-weight="700" fill="#c9222e">AH</text></g></g><path d="M230 180 C 375 180, 375 180, 520 180" fill="none" stroke="#f0b31a" stroke-width="5" marker-end="url(#arrow)"/><text x="375" y="168" text-anchor="middle" font-family="Arial, Helvetica, sans-serif" font-size="17" font-weight="700" fill="#6b4500">free cells stay open</text><path d="M410 310 C 510 310, 510 225, 610 225" fill="none" stroke="#f0b31a" stroke-width="5" marker-end="url(#arrow)"/><text x="510" y="255.5" text-anchor="middle" font-family="Arial, Helvetica, sans-serif" font-size="17" font-weight="700" fill="#6b4500">Aces up</text></svg>