<svg xmlns="http://www.w3.org/2000/svg" viewBox="0 0 960 540" role="img" aria-labelledby="title desc"><title id="title">Golf Solitaire visual guide</title><desc id="desc">Clear free tableau cards one rank above or below the waste card before drawing again.</desc><defs><marker id="arrow" markerWidth="12" markerHeight="12" refX="10" refY="6" orient="auto"><path d="M2,2 L10,6 L2,10 Z" fill="#f0b31a"/></marker><pattern id="felt" width="24" height="24" patternUnits="userSpaceOnUse"><rect width="24" height="24" fill="#0f5924"/><path d="M0 12 H24 M12 0 V24" stroke="#1a6d31" stroke-width="1" opacity=".45"/></pattern><linearGradient id="wood" x1="0" x2="1"><stop offset="0" stop-color="#d4b487"/><stop offset="1" stop-color="#a7774b"/></linearGradient></defs><rect width="960" height="540" fill="url(#felt)"/><rect x="24" y="24" width="912" height="492" rx="20" fill="rgba(255,255,255,.08)" stroke="rgba(255,255,255,.28)"/><text x="480" y="58" text-anchor="middle" font-family="Arial, Helvetica, sans-serif" font-size="30" font-weight="800" fill="#fff">Golf Solitaire</text><g><rect x="130" y="145" width="70" height="98" rx="8" fill="#fffaf0" stroke="#273529" stroke-width="3"/><text x="142" y="173" font-family="Arial" font-size="24" font-weight="700" fill="#151515">6C</text></g><g><rect x="220" y="145" width="70" height="98" rx="8" fill="#fffaf0" stroke="#273529" stroke-width="3"/><text x="232" y="173" font-family="Arial" font-size="24" font-weight="700" fill="#c9222e">7D</text></g><g><rect x="310" y="145" width="70" height="98" rx="8" fill="#fffaf0" stroke="#273529" stroke-width="3"/><text x="322" y="173" font-family="Arial" font-size="24" font-weight="700" fill="#151515">8S</text></g><g><rect x="400" y="145" width="70" height="98" rx="8" fill="#fffaf0" stroke="#273529" stroke-width="3"/><text x="412" y="173" font-family="Arial" font-size="24" font-weight="700" fill="#c9222e">9H</text></g><g><rect x="490" y="145" width="70" height="98" rx="8" fill="#fffaf0" stroke="#273529" stroke-width="3"/><text x="502" y="173" font-family="Arial" font-size="24" font-weight="700" fill="#151515">10C</text></g><g><rect x="580" y="145" width="70" height="98" rx="8" fill="#fffaf0" stroke="#273529" stroke-width="3"/><text x="592" y="173" font-family="Arial" font-size="24" font-weight="700" fill="#c9222e">JD</text></g><g><rect x="670" y="145" width="70" height="98" rx="8" fill="#fffaf0" stroke="#273529" stroke-width="3"/><text x="682" y="173" font-family="Arial" font-size="24" font-weight="700" fill="#151515">QS</text></g><rect x="285" y="360" width="90" height="118" rx="12" fill="#fff7e2" stroke="#2f7d40" stroke-width="3"/><text x="330" y="426" text-anchor="middle" font-family="Arial, Helvetica, sans-serif" font-size="18" font-weight="700" fill="#214b2a">Stock</text><g><rect x="295" y="370" width="70" height="98" rx="8" fill="#d92832" stroke="#fff" stroke-width="3"/><text x="307" y="398" font-family="Arial" font-size="24" font-weight="700" fill="#fff"></text><path d="M311 420 h38 m-38 14 h38" stroke="#fff" stroke-width="5"/></g><rect x="460" y="360" width="90" height="118" rx="12" fill="#fff7e2" stroke="#2f7d40" stroke-width="3"/><text x="505" y="426" text-anchor="middle" font-family="Arial, Helvetica, sans-serif" font-size="18" font-weight="700" fill="#214b2a">Waste</text><g><rect x="470" y="370" width="70" height="98" rx="8" fill="#fffaf0" stroke="#273529" stroke-width="3"/><text x="482" y="398" font-family="Arial" font-size="24" font-weight="700" fill="#c9222e">8H</text></g><path d="M540 410 C 595 410, 595 210, 650 210" fill="none" stroke="#f0b31a" stroke-width="5" marker-end="url(#arrow)"/><text x="595" y="298" text-anchor="middle" font-family="Arial, Helvetica, sans-serif" font-size="17" font-weight="700" fill="#6b4500">one rank up/down</text></svg>