<svg xmlns="http://www.w3.org/2000/svg" viewBox="0 0 960 540" role="img" aria-labelledby="title desc"><title id="title">Grandfather's Clock visual guide</title><desc id="desc">Build each suit foundation around the clock face until it reaches the matching hour.</desc><defs><marker id="arrow" markerWidth="12" markerHeight="12" refX="10" refY="6" orient="auto"><path d="M2,2 L10,6 L2,10 Z" fill="#f0b31a"/></marker><pattern id="felt" width="24" height="24" patternUnits="userSpaceOnUse"><rect width="24" height="24" fill="#0f5924"/><path d="M0 12 H24 M12 0 V24" stroke="#1a6d31" stroke-width="1" opacity=".45"/></pattern><linearGradient id="wood" x1="0" x2="1"><stop offset="0" stop-color="#d4b487"/><stop offset="1" stop-color="#a7774b"/></linearGradient></defs><rect width="960" height="540" fill="url(#felt)"/><rect x="24" y="24" width="912" height="492" rx="20" fill="rgba(255,255,255,.08)" stroke="rgba(255,255,255,.28)"/><text x="480" y="58" text-anchor="middle" font-family="Arial, Helvetica, sans-serif" font-size="30" font-weight="800" fill="#fff">Grandfather's Clock</text><rect x="446" y="69" width="68" height="92" rx="12" fill="#fffaf0" stroke="#e4f0dc" stroke-width="3"/><text x="480" y="122" text-anchor="middle" font-family="Arial, Helvetica, sans-serif" font-size="18" font-weight="700" fill="#214b2a">1</text><rect x="556" y="91.7756813566454" width="68" height="92" rx="12" fill="#fffaf0" stroke="#e4f0dc" stroke-width="3"/><text x="590" y="144.7756813566454" text-anchor="middle" font-family="Arial, Helvetica, sans-serif" font-size="18" font-weight="700" fill="#214b2a">2</text><rect x="636.5255888325764" y="154" width="68" height="92" rx="12" fill="#fffaf0" stroke="#e4f0dc" stroke-width="3"/><text x="670.5255888325764" y="207" text-anchor="middle" font-family="Arial, Helvetica, sans-serif" font-size="18" font-weight="700" fill="#214b2a">3</text><rect x="666" y="239" width="68" height="92" rx="12" fill="#fffaf0" stroke="#e4f0dc" stroke-width="3"/><text x="700" y="292" text-anchor="middle" font-family="Arial, Helvetica, sans-serif" font-size="18" font-weight="700" fill="#214b2a">4</text><rect x="636.5255888325765" y="324" width="68" height="92" rx="12" fill="#fffaf0" stroke="#e4f0dc" stroke-width="3"/><text x="670.5255888325765" y="377" text-anchor="middle" font-family="Arial, Helvetica, sans-serif" font-size="18" font-weight="700" fill="#214b2a">5</text><rect x="556" y="386.2243186433546" width="68" height="92" rx="12" fill="#fffaf0" stroke="#e4f0dc" stroke-width="3"/><text x="590" y="439.2243186433546" text-anchor="middle" font-family="Arial, Helvetica, sans-serif" font-size="18" font-weight="700" fill="#214b2a">6</text><rect x="446" y="409" width="68" height="92" rx="12" fill="#fffaf0" stroke="#e4f0dc" stroke-width="3"/><text x="480" y="462" text-anchor="middle" font-family="Arial, Helvetica, sans-serif" font-size="18" font-weight="700" fill="#214b2a">7</text><rect x="335.99999999999994" y="386.22431864335454" width="68" height="92" rx="12" fill="#fffaf0" stroke="#e4f0dc" stroke-width="3"/><text x="369.99999999999994" y="439.22431864335454" text-anchor="middle" font-family="Arial, Helvetica, sans-serif" font-size="18" font-weight="700" fill="#214b2a">8</text><rect x="255.47441116742357" y="324.00000000000006" width="68" height="92" rx="12" fill="#fffaf0" stroke="#e4f0dc" stroke-width="3"/><text x="289.47441116742357" y="377.00000000000006" text-anchor="middle" font-family="Arial, Helvetica, sans-serif" font-size="18" font-weight="700" fill="#214b2a">9</text><rect x="226" y="239" width="68" height="92" rx="12" fill="#fffaf0" stroke="#e4f0dc" stroke-width="3"/><text x="260" y="292" text-anchor="middle" font-family="Arial, Helvetica, sans-serif" font-size="18" font-weight="700" fill="#214b2a">10</text><rect x="255.4744111674235" y="154" width="68" height="92" rx="12" fill="#fffaf0" stroke="#e4f0dc" stroke-width="3"/><text x="289.4744111674235" y="207" text-anchor="middle" font-family="Arial, Helvetica, sans-serif" font-size="18" font-weight="700" fill="#214b2a">11</text><rect x="335.9999999999999" y="91.77568135664546" width="68" height="92" rx="12" fill="#fffaf0" stroke="#e4f0dc" stroke-width="3"/><text x="369.9999999999999" y="144.77568135664546" text-anchor="middle" font-family="Arial, Helvetica, sans-serif" font-size="18" font-weight="700" fill="#214b2a">12</text><text x="480" y="291" text-anchor="middle" font-family="Arial, Helvetica, sans-serif" font-size="24" font-weight="800" fill="#fff">Clock foundations</text><g><g><rect x="105" y="390" width="70" height="98" rx="8" fill="#d92832" stroke="#fff" stroke-width="3"/><text x="117" y="418" font-family="Arial" font-size="24" font-weight="700" fill="#fff"></text><path d="M121 440 h38 m-38 14 h38" stroke="#fff" stroke-width="5"/></g><g><rect x="105" y="426" width="70" height="98" rx="8" fill="#fffaf0" stroke="#273529" stroke-width="3"/><text x="117" y="454" font-family="Arial" font-size="24" font-weight="700" fill="#151515">7C</text></g></g><g><g><rect x="195" y="390" width="70" height="98" rx="8" fill="#d92832" stroke="#fff" stroke-width="3"/><text x="207" y="418" font-family="Arial" font-size="24" font-weight="700" fill="#fff"></text><path d="M211 440 h38 m-38 14 h38" stroke="#fff" stroke-width="5"/></g><g><rect x="195" y="418" width="70" height="98" rx="8" fill="#d92832" stroke="#fff" stroke-width="3"/><text x="207" y="446" font-family="Arial" font-size="24" font-weight="700" fill="#fff"></text><path d="M211 468 h38 m-38 14 h38" stroke="#fff" stroke-width="5"/></g></g><g><g><rect x="285" y="390" width="70" height="98" rx="8" fill="#d92832" stroke="#fff" stroke-width="3"/><text x="297" y="418" font-family="Arial" font-size="24" font-weight="700" fill="#fff"></text><path d="M301 440 h38 m-38 14 h38" stroke="#fff" stroke-width="5"/></g><g><rect x="285" y="426" width="70" height="98" rx="8" fill="#fffaf0" stroke="#273529" stroke-width="3"/><text x="297" y="454" font-family="Arial" font-size="24" font-weight="700" fill="#c9222e">KD</text></g></g><g><g><rect x="375" y="390" width="70" height="98" rx="8" fill="#d92832" stroke="#fff" stroke-width="3"/><text x="387" y="418" font-family="Arial" font-size="24" font-weight="700" fill="#fff"></text><path d="M391 440 h38 m-38 14 h38" stroke="#fff" stroke-width="5"/></g><g><rect x="375" y="418" width="70" height="98" rx="8" fill="#d92832" stroke="#fff" stroke-width="3"/><text x="387" y="446" font-family="Arial" font-size="24" font-weight="700" fill="#fff"></text><path d="M391 468 h38 m-38 14 h38" stroke="#fff" stroke-width="5"/></g><g><rect x="375" y="452" width="70" height="98" rx="8" fill="#fffaf0" stroke="#273529" stroke-width="3"/><text x="387" y="480" font-family="Arial" font-size="24" font-weight="700" fill="#c9222e">QH</text></g></g><g><g><rect x="465" y="390" width="70" height="98" rx="8" fill="#d92832" stroke="#fff" stroke-width="3"/><text x="477" y="418" font-family="Arial" font-size="24" font-weight="700" fill="#fff"></text><path d="M481 440 h38 m-38 14 h38" stroke="#fff" stroke-width="5"/></g><g><rect x="465" y="426" width="70" height="98" rx="8" fill="#fffaf0" stroke="#273529" stroke-width="3"/><text x="477" y="454" font-family="Arial" font-size="24" font-weight="700" fill="#c9222e">4H</text></g><g><rect x="465" y="452" width="70" height="98" rx="8" fill="#fffaf0" stroke="#273529" stroke-width="3"/><text x="477" y="480" font-family="Arial" font-size="24" font-weight="700" fill="#c9222e">5D</text></g></g><g><g><rect x="555" y="390" width="70" height="98" rx="8" fill="#d92832" stroke="#fff" stroke-width="3"/><text x="567" y="418" font-family="Arial" font-size="24" font-weight="700" fill="#fff"></text><path d="M571 440 h38 m-38 14 h38" stroke="#fff" stroke-width="5"/></g><g><rect x="555" y="418" width="70" height="98" rx="8" fill="#d92832" stroke="#fff" stroke-width="3"/><text x="567" y="446" font-family="Arial" font-size="24" font-weight="700" fill="#fff"></text><path d="M571 468 h38 m-38 14 h38" stroke="#fff" stroke-width="5"/></g><g><rect x="555" y="452" width="70" height="98" rx="8" fill="#fffaf0" stroke="#273529" stroke-width="3"/><text x="567" y="480" font-family="Arial" font-size="24" font-weight="700" fill="#c9222e">3H</text></g></g><g><g><rect x="645" y="390" width="70" height="98" rx="8" fill="#d92832" stroke="#fff" stroke-width="3"/><text x="657" y="418" font-family="Arial" font-size="24" font-weight="700" fill="#fff"></text><path d="M661 440 h38 m-38 14 h38" stroke="#fff" stroke-width="5"/></g><g><rect x="645" y="426" width="70" height="98" rx="8" fill="#fffaf0" stroke="#273529" stroke-width="3"/><text x="657" y="454" font-family="Arial" font-size="24" font-weight="700" fill="#151515">8S</text></g><g><rect x="645" y="452" width="70" height="98" rx="8" fill="#fffaf0" stroke="#273529" stroke-width="3"/><text x="657" y="480" font-family="Arial" font-size="24" font-weight="700" fill="#151515">6S</text></g></g><g><g><rect x="735" y="390" width="70" height="98" rx="8" fill="#d92832" stroke="#fff" stroke-width="3"/><text x="747" y="418" font-family="Arial" font-size="24" font-weight="700" fill="#fff"></text><path d="M751 440 h38 m-38 14 h38" stroke="#fff" stroke-width="5"/></g><g><rect x="735" y="418" width="70" height="98" rx="8" fill="#d92832" stroke="#fff" stroke-width="3"/><text x="747" y="446" font-family="Arial" font-size="24" font-weight="700" fill="#fff"></text><path d="M751 468 h38 m-38 14 h38" stroke="#fff" stroke-width="5"/></g><g><rect x="735" y="452" width="70" height="98" rx="8" fill="#fffaf0" stroke="#273529" stroke-width="3"/><text x="747" y="480" font-family="Arial" font-size="24" font-weight="700" fill="#c9222e">AH</text></g></g><path d="M265 405 C 372.5 405, 372.5 310, 480 310" fill="none" stroke="#f0b31a" stroke-width="5" marker-end="url(#arrow)"/><text x="372.5" y="345.5" text-anchor="middle" font-family="Arial, Helvetica, sans-serif" font-size="17" font-weight="700" fill="#6b4500">top cards feed the clock</text></svg>