<svg xmlns="http://www.w3.org/2000/svg" viewBox="0 0 960 540" role="img" aria-labelledby="title desc"><title id="title">Klondike visual guide</title><desc id="desc">Turn stock cards to the waste, uncover tableau cards, and build foundations from Ace to King.</desc><defs><marker id="arrow" markerWidth="12" markerHeight="12" refX="10" refY="6" orient="auto"><path d="M2,2 L10,6 L2,10 Z" fill="#f0b31a"/></marker><pattern id="felt" width="24" height="24" patternUnits="userSpaceOnUse"><rect width="24" height="24" fill="#0f5924"/><path d="M0 12 H24 M12 0 V24" stroke="#1a6d31" stroke-width="1" opacity=".45"/></pattern><linearGradient id="wood" x1="0" x2="1"><stop offset="0" stop-color="#d4b487"/><stop offset="1" stop-color="#a7774b"/></linearGradient></defs><rect width="960" height="540" fill="url(#felt)"/><rect x="24" y="24" width="912" height="492" rx="20" fill="rgba(255,255,255,.08)" stroke="rgba(255,255,255,.28)"/><text x="480" y="58" text-anchor="middle" font-family="Arial, Helvetica, sans-serif" font-size="30" font-weight="800" fill="#fff">Klondike</text><rect x="560" y="88" width="80" height="112" rx="12" fill="#ffffff" stroke="#e4f0dc" stroke-width="3"/><g><rect x="565" y="96" width="70" height="98" rx="8" fill="#fffaf0" stroke="#273529" stroke-width="3"/><text x="577" y="124" font-family="Arial" font-size="24" font-weight="700" fill="#c9222e">AH</text></g><rect x="656" y="88" width="80" height="112" rx="12" fill="#ffffff" stroke="#e4f0dc" stroke-width="3"/><g><rect x="661" y="96" width="70" height="98" rx="8" fill="#fffaf0" stroke="#273529" stroke-width="3"/><text x="673" y="124" font-family="Arial" font-size="24" font-weight="700" fill="#c9222e">2H</text></g><rect x="752" y="88" width="80" height="112" rx="12" fill="#ffffff" stroke="#e4f0dc" stroke-width="3"/><g><rect x="757" y="96" width="70" height="98" rx="8" fill="#fffaf0" stroke="#273529" stroke-width="3"/><text x="769" y="124" font-family="Arial" font-size="24" font-weight="700" fill="#c9222e">3H</text></g><rect x="848" y="88" width="80" height="112" rx="12" fill="#ffffff" stroke="#e4f0dc" stroke-width="3"/><g><rect x="853" y="96" width="70" height="98" rx="8" fill="#fffaf0" stroke="#273529" stroke-width="3"/><text x="865" y="124" font-family="Arial" font-size="24" font-weight="700" fill="#c9222e">4H</text></g><rect x="560" y="210" width="368" height="28" rx="4" fill="#2d9650"/><text x="744" y="231" text-anchor="middle" font-family="Arial, Helvetica, sans-serif" font-size="17" font-weight="700" fill="#fff">Foundations</text><rect x="100" y="88" width="90" height="118" rx="12" fill="#fff7e2" stroke="#2f7d40" stroke-width="3"/><text x="145" y="154" text-anchor="middle" font-family="Arial, Helvetica, sans-serif" font-size="18" font-weight="700" fill="#214b2a">Stock</text><g><rect x="110" y="98" width="70" height="98" rx="8" fill="#d92832" stroke="#fff" stroke-width="3"/><text x="122" y="126" font-family="Arial" font-size="24" font-weight="700" fill="#fff"></text><path d="M126 148 h38 m-38 14 h38" stroke="#fff" stroke-width="5"/></g><rect x="220" y="88" width="90" height="118" rx="12" fill="#fff7e2" stroke="#2f7d40" stroke-width="3"/><text x="265" y="154" text-anchor="middle" font-family="Arial, Helvetica, sans-serif" font-size="18" font-weight="700" fill="#214b2a">Waste</text><g><rect x="230" y="98" width="70" height="98" rx="8" fill="#fffaf0" stroke="#273529" stroke-width="3"/><text x="242" y="126" font-family="Arial" font-size="24" font-weight="700" fill="#151515">3S</text></g><g><g><rect x="110" y="292" width="70" height="98" rx="8" fill="#d92832" stroke="#fff" stroke-width="3"/><text x="122" y="320" font-family="Arial" font-size="24" font-weight="700" fill="#fff"></text><path d="M126 342 h38 m-38 14 h38" stroke="#fff" stroke-width="5"/></g><g><rect x="110" y="328" width="70" height="98" rx="8" fill="#fffaf0" stroke="#273529" stroke-width="3"/><text x="122" y="356" font-family="Arial" font-size="24" font-weight="700" fill="#151515">7C</text></g></g><g><g><rect x="210" y="292" width="70" height="98" rx="8" fill="#d92832" stroke="#fff" stroke-width="3"/><text x="222" y="320" font-family="Arial" font-size="24" font-weight="700" fill="#fff"></text><path d="M226 342 h38 m-38 14 h38" stroke="#fff" stroke-width="5"/></g><g><rect x="210" y="320" width="70" height="98" rx="8" fill="#d92832" stroke="#fff" stroke-width="3"/><text x="222" y="348" font-family="Arial" font-size="24" font-weight="700" fill="#fff"></text><path d="M226 370 h38 m-38 14 h38" stroke="#fff" stroke-width="5"/></g></g><g><g><rect x="310" y="292" width="70" height="98" rx="8" fill="#d92832" stroke="#fff" stroke-width="3"/><text x="322" y="320" font-family="Arial" font-size="24" font-weight="700" fill="#fff"></text><path d="M326 342 h38 m-38 14 h38" stroke="#fff" stroke-width="5"/></g><g><rect x="310" y="328" width="70" height="98" rx="8" fill="#fffaf0" stroke="#273529" stroke-width="3"/><text x="322" y="356" font-family="Arial" font-size="24" font-weight="700" fill="#c9222e">KD</text></g></g><g><g><rect x="410" y="292" width="70" height="98" rx="8" fill="#d92832" stroke="#fff" stroke-width="3"/><text x="422" y="320" font-family="Arial" font-size="24" font-weight="700" fill="#fff"></text><path d="M426 342 h38 m-38 14 h38" stroke="#fff" stroke-width="5"/></g><g><rect x="410" y="320" width="70" height="98" rx="8" fill="#d92832" stroke="#fff" stroke-width="3"/><text x="422" y="348" font-family="Arial" font-size="24" font-weight="700" fill="#fff"></text><path d="M426 370 h38 m-38 14 h38" stroke="#fff" stroke-width="5"/></g><g><rect x="410" y="354" width="70" height="98" rx="8" fill="#fffaf0" stroke="#273529" stroke-width="3"/><text x="422" y="382" font-family="Arial" font-size="24" font-weight="700" fill="#c9222e">QH</text></g></g><g><g><rect x="510" y="292" width="70" height="98" rx="8" fill="#d92832" stroke="#fff" stroke-width="3"/><text x="522" y="320" font-family="Arial" font-size="24" font-weight="700" fill="#fff"></text><path d="M526 342 h38 m-38 14 h38" stroke="#fff" stroke-width="5"/></g><g><rect x="510" y="328" width="70" height="98" rx="8" fill="#fffaf0" stroke="#273529" stroke-width="3"/><text x="522" y="356" font-family="Arial" font-size="24" font-weight="700" fill="#c9222e">4H</text></g><g><rect x="510" y="354" width="70" height="98" rx="8" fill="#fffaf0" stroke="#273529" stroke-width="3"/><text x="522" y="382" font-family="Arial" font-size="24" font-weight="700" fill="#c9222e">5D</text></g></g><g><g><rect x="610" y="292" width="70" height="98" rx="8" fill="#d92832" stroke="#fff" stroke-width="3"/><text x="622" y="320" font-family="Arial" font-size="24" font-weight="700" fill="#fff"></text><path d="M626 342 h38 m-38 14 h38" stroke="#fff" stroke-width="5"/></g><g><rect x="610" y="320" width="70" height="98" rx="8" fill="#d92832" stroke="#fff" stroke-width="3"/><text x="622" y="348" font-family="Arial" font-size="24" font-weight="700" fill="#fff"></text><path d="M626 370 h38 m-38 14 h38" stroke="#fff" stroke-width="5"/></g><g><rect x="610" y="354" width="70" height="98" rx="8" fill="#fffaf0" stroke="#273529" stroke-width="3"/><text x="622" y="382" font-family="Arial" font-size="24" font-weight="700" fill="#c9222e">3H</text></g></g><g><g><rect x="710" y="292" width="70" height="98" rx="8" fill="#d92832" stroke="#fff" stroke-width="3"/><text x="722" y="320" font-family="Arial" font-size="24" font-weight="700" fill="#fff"></text><path d="M726 342 h38 m-38 14 h38" stroke="#fff" stroke-width="5"/></g><g><rect x="710" y="328" width="70" height="98" rx="8" fill="#fffaf0" stroke="#273529" stroke-width="3"/><text x="722" y="356" font-family="Arial" font-size="24" font-weight="700" fill="#151515">8S</text></g><g><rect x="710" y="354" width="70" height="98" rx="8" fill="#fffaf0" stroke="#273529" stroke-width="3"/><text x="722" y="382" font-family="Arial" font-size="24" font-weight="700" fill="#151515">6S</text></g></g><path d="M165 210 C 215 210, 215 210, 265 210" fill="none" stroke="#f0b31a" stroke-width="5" marker-end="url(#arrow)"/><text x="215" y="198" text-anchor="middle" font-family="Arial, Helvetica, sans-serif" font-size="17" font-weight="700" fill="#6b4500">draw 3</text><path d="M385 335 C 497.5 335, 497.5 220, 610 220" fill="none" stroke="#f0b31a" stroke-width="5" marker-end="url(#arrow)"/><text x="497.5" y="265.5" text-anchor="middle" font-family="Arial, Helvetica, sans-serif" font-size="17" font-weight="700" fill="#6b4500">Aces up</text><text x="440" y="478" text-anchor="middle" font-family="Arial, Helvetica, sans-serif" font-size="22" font-weight="800" fill="#fff">Tableau builds down by alternating color</text></svg>