<svg xmlns="http://www.w3.org/2000/svg" viewBox="0 0 960 540" role="img" aria-labelledby="title desc"><title id="title">Monte Carlo visual guide</title><desc id="desc">Remove adjacent matching ranks, then collapse the grid and deal fresh cards into the gaps.</desc><defs><marker id="arrow" markerWidth="12" markerHeight="12" refX="10" refY="6" orient="auto"><path d="M2,2 L10,6 L2,10 Z" fill="#f0b31a"/></marker><pattern id="felt" width="24" height="24" patternUnits="userSpaceOnUse"><rect width="24" height="24" fill="#0f5924"/><path d="M0 12 H24 M12 0 V24" stroke="#1a6d31" stroke-width="1" opacity=".45"/></pattern><linearGradient id="wood" x1="0" x2="1"><stop offset="0" stop-color="#d4b487"/><stop offset="1" stop-color="#a7774b"/></linearGradient></defs><rect width="960" height="540" fill="url(#felt)"/><rect x="24" y="24" width="912" height="492" rx="20" fill="rgba(255,255,255,.08)" stroke="rgba(255,255,255,.28)"/><text x="480" y="58" text-anchor="middle" font-family="Arial, Helvetica, sans-serif" font-size="30" font-weight="800" fill="#fff">Monte Carlo</text><g><rect x="170" y="115" width="70" height="98" rx="8" fill="#fffaf0" stroke="#273529" stroke-width="3"/><text x="182" y="143" font-family="Arial" font-size="24" font-weight="700" fill="#c9222e">AH</text></g><g><rect x="262" y="115" width="70" height="98" rx="8" fill="#fffaf0" stroke="#273529" stroke-width="3"/><text x="274" y="143" font-family="Arial" font-size="24" font-weight="700" fill="#c9222e">4D</text></g><g><rect x="354" y="115" width="70" height="98" rx="8" fill="#fffaf0" stroke="#273529" stroke-width="3"/><text x="366" y="143" font-family="Arial" font-size="24" font-weight="700" fill="#151515">JS</text></g><g><rect x="446" y="115" width="70" height="98" rx="8" fill="#fffaf0" stroke="#273529" stroke-width="3"/><text x="458" y="143" font-family="Arial" font-size="24" font-weight="700" fill="#151515">6C</text></g><g><rect x="538" y="115" width="70" height="98" rx="8" fill="#fffaf0" stroke="#273529" stroke-width="3"/><text x="550" y="143" font-family="Arial" font-size="24" font-weight="700" fill="#c9222e">2H</text></g><g><rect x="170" y="187" width="70" height="98" rx="8" fill="#fffaf0" stroke="#273529" stroke-width="3"/><text x="182" y="215" font-family="Arial" font-size="24" font-weight="700" fill="#c9222e">4D</text></g><g><rect x="262" y="187" width="70" height="98" rx="8" fill="#fffaf0" stroke="#273529" stroke-width="3"/><text x="274" y="215" font-family="Arial" font-size="24" font-weight="700" fill="#151515">9C</text></g><g><rect x="354" y="187" width="70" height="98" rx="8" fill="#fffaf0" stroke="#273529" stroke-width="3"/><text x="366" y="215" font-family="Arial" font-size="24" font-weight="700" fill="#151515">6C</text></g><g><rect x="446" y="187" width="70" height="98" rx="8" fill="#fffaf0" stroke="#273529" stroke-width="3"/><text x="458" y="215" font-family="Arial" font-size="24" font-weight="700" fill="#c9222e">2H</text></g><g><rect x="538" y="187" width="70" height="98" rx="8" fill="#fffaf0" stroke="#273529" stroke-width="3"/><text x="550" y="215" font-family="Arial" font-size="24" font-weight="700" fill="#c9222e">AH</text></g><g><rect x="170" y="259" width="70" height="98" rx="8" fill="#fffaf0" stroke="#273529" stroke-width="3"/><text x="182" y="287" font-family="Arial" font-size="24" font-weight="700" fill="#151515">JS</text></g><g><rect x="262" y="259" width="70" height="98" rx="8" fill="#fffaf0" stroke="#273529" stroke-width="3"/><text x="274" y="287" font-family="Arial" font-size="24" font-weight="700" fill="#151515">6C</text></g><g><rect x="354" y="259" width="70" height="98" rx="8" fill="#fffaf0" stroke="#273529" stroke-width="3"/><text x="366" y="287" font-family="Arial" font-size="24" font-weight="700" fill="#151515">9C</text></g><g><rect x="446" y="259" width="70" height="98" rx="8" fill="#fffaf0" stroke="#273529" stroke-width="3"/><text x="458" y="287" font-family="Arial" font-size="24" font-weight="700" fill="#c9222e">AH</text></g><g><rect x="538" y="259" width="70" height="98" rx="8" fill="#fffaf0" stroke="#273529" stroke-width="3"/><text x="550" y="287" font-family="Arial" font-size="24" font-weight="700" fill="#c9222e">4D</text></g><g><rect x="170" y="331" width="70" height="98" rx="8" fill="#fffaf0" stroke="#273529" stroke-width="3"/><text x="182" y="359" font-family="Arial" font-size="24" font-weight="700" fill="#151515">6C</text></g><g><rect x="262" y="331" width="70" height="98" rx="8" fill="#fffaf0" stroke="#273529" stroke-width="3"/><text x="274" y="359" font-family="Arial" font-size="24" font-weight="700" fill="#c9222e">2H</text></g><g><rect x="354" y="331" width="70" height="98" rx="8" fill="#fffaf0" stroke="#273529" stroke-width="3"/><text x="366" y="359" font-family="Arial" font-size="24" font-weight="700" fill="#c9222e">AH</text></g><g><rect x="446" y="331" width="70" height="98" rx="8" fill="#fffaf0" stroke="#273529" stroke-width="3"/><text x="458" y="359" font-family="Arial" font-size="24" font-weight="700" fill="#c9222e">4D</text></g><g><rect x="538" y="331" width="70" height="98" rx="8" fill="#fffaf0" stroke="#273529" stroke-width="3"/><text x="550" y="359" font-family="Arial" font-size="24" font-weight="700" fill="#151515">JS</text></g><g><rect x="170" y="403" width="70" height="98" rx="8" fill="#fffaf0" stroke="#273529" stroke-width="3"/><text x="182" y="431" font-family="Arial" font-size="24" font-weight="700" fill="#c9222e">2H</text></g><g><rect x="262" y="403" width="70" height="98" rx="8" fill="#fffaf0" stroke="#273529" stroke-width="3"/><text x="274" y="431" font-family="Arial" font-size="24" font-weight="700" fill="#c9222e">AH</text></g><g><rect x="354" y="403" width="70" height="98" rx="8" fill="#fffaf0" stroke="#273529" stroke-width="3"/><text x="366" y="431" font-family="Arial" font-size="24" font-weight="700" fill="#c9222e">4D</text></g><g><rect x="446" y="403" width="70" height="98" rx="8" fill="#fffaf0" stroke="#273529" stroke-width="3"/><text x="458" y="431" font-family="Arial" font-size="24" font-weight="700" fill="#151515">JS</text></g><g><rect x="538" y="403" width="70" height="98" rx="8" fill="#fffaf0" stroke="#273529" stroke-width="3"/><text x="550" y="431" font-family="Arial" font-size="24" font-weight="700" fill="#151515">6C</text></g><circle cx="354" cy="286" r="50" fill="none" stroke="#ffd943" stroke-width="6"/><circle cx="446" cy="358" r="50" fill="none" stroke="#ffd943" stroke-width="6"/><path d="M390 315 C 410 315, 410 345, 430 345" fill="none" stroke="#f0b31a" stroke-width="5" marker-end="url(#arrow)"/><text x="410" y="318" text-anchor="middle" font-family="Arial, Helvetica, sans-serif" font-size="17" font-weight="700" fill="#6b4500">adjacent match</text><rect x="720" y="280" width="120" height="80" rx="12" fill="#fff7e2" stroke="#ffd943" stroke-width="3"/><text x="780" y="327" text-anchor="middle" font-family="Arial, Helvetica, sans-serif" font-size="18" font-weight="700" fill="#214b2a">Collapse and deal</text></svg>