<svg xmlns="http://www.w3.org/2000/svg" viewBox="0 0 960 540" role="img" aria-labelledby="title desc"><title id="title">Pyramid visual guide</title><desc id="desc">Pair uncovered cards that total 13. Kings clear alone because they already equal 13.</desc><defs><marker id="arrow" markerWidth="12" markerHeight="12" refX="10" refY="6" orient="auto"><path d="M2,2 L10,6 L2,10 Z" fill="#f0b31a"/></marker><pattern id="felt" width="24" height="24" patternUnits="userSpaceOnUse"><rect width="24" height="24" fill="#0f5924"/><path d="M0 12 H24 M12 0 V24" stroke="#1a6d31" stroke-width="1" opacity=".45"/></pattern><linearGradient id="wood" x1="0" x2="1"><stop offset="0" stop-color="#d4b487"/><stop offset="1" stop-color="#a7774b"/></linearGradient></defs><rect width="960" height="540" fill="url(#felt)"/><rect x="24" y="24" width="912" height="492" rx="20" fill="rgba(255,255,255,.08)" stroke="rgba(255,255,255,.28)"/><text x="480" y="58" text-anchor="middle" font-family="Arial, Helvetica, sans-serif" font-size="30" font-weight="800" fill="#fff">Pyramid</text><g><rect x="330" y="105" width="70" height="98" rx="8" fill="#d92832" stroke="#fff" stroke-width="3"/><text x="342" y="133" font-family="Arial" font-size="24" font-weight="700" fill="#fff"></text><path d="M346 155 h38 m-38 14 h38" stroke="#fff" stroke-width="5"/></g><g><rect x="304" y="147" width="70" height="98" rx="8" fill="#d92832" stroke="#fff" stroke-width="3"/><text x="316" y="175" font-family="Arial" font-size="24" font-weight="700" fill="#fff"></text><path d="M320 197 h38 m-38 14 h38" stroke="#fff" stroke-width="5"/></g><g><rect x="356" y="147" width="70" height="98" rx="8" fill="#d92832" stroke="#fff" stroke-width="3"/><text x="368" y="175" font-family="Arial" font-size="24" font-weight="700" fill="#fff"></text><path d="M372 197 h38 m-38 14 h38" stroke="#fff" stroke-width="5"/></g><g><rect x="278" y="189" width="70" height="98" rx="8" fill="#d92832" stroke="#fff" stroke-width="3"/><text x="290" y="217" font-family="Arial" font-size="24" font-weight="700" fill="#fff"></text><path d="M294 239 h38 m-38 14 h38" stroke="#fff" stroke-width="5"/></g><g><rect x="330" y="189" width="70" height="98" rx="8" fill="#d92832" stroke="#fff" stroke-width="3"/><text x="342" y="217" font-family="Arial" font-size="24" font-weight="700" fill="#fff"></text><path d="M346 239 h38 m-38 14 h38" stroke="#fff" stroke-width="5"/></g><g><rect x="382" y="189" width="70" height="98" rx="8" fill="#d92832" stroke="#fff" stroke-width="3"/><text x="394" y="217" font-family="Arial" font-size="24" font-weight="700" fill="#fff"></text><path d="M398 239 h38 m-38 14 h38" stroke="#fff" stroke-width="5"/></g><g><rect x="252" y="231" width="70" height="98" rx="8" fill="#d92832" stroke="#fff" stroke-width="3"/><text x="264" y="259" font-family="Arial" font-size="24" font-weight="700" fill="#fff"></text><path d="M268 281 h38 m-38 14 h38" stroke="#fff" stroke-width="5"/></g><g><rect x="304" y="231" width="70" height="98" rx="8" fill="#d92832" stroke="#fff" stroke-width="3"/><text x="316" y="259" font-family="Arial" font-size="24" font-weight="700" fill="#fff"></text><path d="M320 281 h38 m-38 14 h38" stroke="#fff" stroke-width="5"/></g><g><rect x="356" y="231" width="70" height="98" rx="8" fill="#d92832" stroke="#fff" stroke-width="3"/><text x="368" y="259" font-family="Arial" font-size="24" font-weight="700" fill="#fff"></text><path d="M372 281 h38 m-38 14 h38" stroke="#fff" stroke-width="5"/></g><g><rect x="408" y="231" width="70" height="98" rx="8" fill="#d92832" stroke="#fff" stroke-width="3"/><text x="420" y="259" font-family="Arial" font-size="24" font-weight="700" fill="#fff"></text><path d="M424 281 h38 m-38 14 h38" stroke="#fff" stroke-width="5"/></g><g><rect x="226" y="273" width="70" height="98" rx="8" fill="#d92832" stroke="#fff" stroke-width="3"/><text x="238" y="301" font-family="Arial" font-size="24" font-weight="700" fill="#fff"></text><path d="M242 323 h38 m-38 14 h38" stroke="#fff" stroke-width="5"/></g><g><rect x="278" y="273" width="70" height="98" rx="8" fill="#d92832" stroke="#fff" stroke-width="3"/><text x="290" y="301" font-family="Arial" font-size="24" font-weight="700" fill="#fff"></text><path d="M294 323 h38 m-38 14 h38" stroke="#fff" stroke-width="5"/></g><g><rect x="330" y="273" width="70" height="98" rx="8" fill="#d92832" stroke="#fff" stroke-width="3"/><text x="342" y="301" font-family="Arial" font-size="24" font-weight="700" fill="#fff"></text><path d="M346 323 h38 m-38 14 h38" stroke="#fff" stroke-width="5"/></g><g><rect x="382" y="273" width="70" height="98" rx="8" fill="#d92832" stroke="#fff" stroke-width="3"/><text x="394" y="301" font-family="Arial" font-size="24" font-weight="700" fill="#fff"></text><path d="M398 323 h38 m-38 14 h38" stroke="#fff" stroke-width="5"/></g><g><rect x="434" y="273" width="70" height="98" rx="8" fill="#d92832" stroke="#fff" stroke-width="3"/><text x="446" y="301" font-family="Arial" font-size="24" font-weight="700" fill="#fff"></text><path d="M450 323 h38 m-38 14 h38" stroke="#fff" stroke-width="5"/></g><g><rect x="200" y="315" width="70" height="98" rx="8" fill="#fffaf0" stroke="#273529" stroke-width="3"/><text x="212" y="343" font-family="Arial" font-size="24" font-weight="700" fill="#151515"></text></g><g><rect x="252" y="315" width="70" height="98" rx="8" fill="#fffaf0" stroke="#273529" stroke-width="3"/><text x="264" y="343" font-family="Arial" font-size="24" font-weight="700" fill="#151515"></text></g><g><rect x="304" y="315" width="70" height="98" rx="8" fill="#fffaf0" stroke="#273529" stroke-width="3"/><text x="316" y="343" font-family="Arial" font-size="24" font-weight="700" fill="#151515"></text></g><g><rect x="356" y="315" width="70" height="98" rx="8" fill="#fffaf0" stroke="#273529" stroke-width="3"/><text x="368" y="343" font-family="Arial" font-size="24" font-weight="700" fill="#151515"></text></g><g><rect x="408" y="315" width="70" height="98" rx="8" fill="#fffaf0" stroke="#273529" stroke-width="3"/><text x="420" y="343" font-family="Arial" font-size="24" font-weight="700" fill="#151515"></text></g><g><rect x="460" y="315" width="70" height="98" rx="8" fill="#fffaf0" stroke="#273529" stroke-width="3"/><text x="472" y="343" font-family="Arial" font-size="24" font-weight="700" fill="#151515"></text></g><g><rect x="174" y="357" width="70" height="98" rx="8" fill="#fffaf0" stroke="#273529" stroke-width="3"/><text x="186" y="385" font-family="Arial" font-size="24" font-weight="700" fill="#151515">8C</text></g><g><rect x="226" y="357" width="70" height="98" rx="8" fill="#fffaf0" stroke="#273529" stroke-width="3"/><text x="238" y="385" font-family="Arial" font-size="24" font-weight="700" fill="#c9222e">5H</text></g><g><rect x="278" y="357" width="70" height="98" rx="8" fill="#fffaf0" stroke="#273529" stroke-width="3"/><text x="290" y="385" font-family="Arial" font-size="24" font-weight="700" fill="#151515">8C</text></g><g><rect x="330" y="357" width="70" height="98" rx="8" fill="#fffaf0" stroke="#273529" stroke-width="3"/><text x="342" y="385" font-family="Arial" font-size="24" font-weight="700" fill="#c9222e">5H</text></g><g><rect x="382" y="357" width="70" height="98" rx="8" fill="#fffaf0" stroke="#273529" stroke-width="3"/><text x="394" y="385" font-family="Arial" font-size="24" font-weight="700" fill="#151515">8C</text></g><g><rect x="434" y="357" width="70" height="98" rx="8" fill="#fffaf0" stroke="#273529" stroke-width="3"/><text x="446" y="385" font-family="Arial" font-size="24" font-weight="700" fill="#c9222e">5H</text></g><g><rect x="486" y="357" width="70" height="98" rx="8" fill="#fffaf0" stroke="#273529" stroke-width="3"/><text x="498" y="385" font-family="Arial" font-size="24" font-weight="700" fill="#151515">8C</text></g><rect x="90" y="120" width="90" height="118" rx="12" fill="#fff7e2" stroke="#2f7d40" stroke-width="3"/><text x="135" y="186" text-anchor="middle" font-family="Arial, Helvetica, sans-serif" font-size="18" font-weight="700" fill="#214b2a">Stock</text><g><rect x="100" y="130" width="70" height="98" rx="8" fill="#d92832" stroke="#fff" stroke-width="3"/><text x="112" y="158" font-family="Arial" font-size="24" font-weight="700" fill="#fff"></text><path d="M116 180 h38 m-38 14 h38" stroke="#fff" stroke-width="5"/></g><rect x="205" y="120" width="90" height="118" rx="12" fill="#fff7e2" stroke="#2f7d40" stroke-width="3"/><text x="250" y="186" text-anchor="middle" font-family="Arial, Helvetica, sans-serif" font-size="18" font-weight="700" fill="#214b2a">Waste</text><g><rect x="215" y="130" width="70" height="98" rx="8" fill="#fffaf0" stroke="#273529" stroke-width="3"/><text x="227" y="158" font-family="Arial" font-size="24" font-weight="700" fill="#c9222e">QH</text></g><path d="M285 180 C 352.5 180, 352.5 360, 420 360" fill="none" stroke="#f0b31a" stroke-width="5" marker-end="url(#arrow)"/><text x="352.5" y="258" text-anchor="middle" font-family="Arial, Helvetica, sans-serif" font-size="17" font-weight="700" fill="#6b4500">pair totals 13</text><text x="515" y="410" text-anchor="middle" font-family="Arial, Helvetica, sans-serif" font-size="28" font-weight="800" fill="#fff">8 + 5 = 13</text></svg>