<svg xmlns="http://www.w3.org/2000/svg" viewBox="0 0 960 540" role="img" aria-labelledby="title desc"><title id="title">Scorpion visual guide</title><desc id="desc">Build same-suit King-to-Ace runs. Use the reserve only after the tableau has stalled.</desc><defs><marker id="arrow" markerWidth="12" markerHeight="12" refX="10" refY="6" orient="auto"><path d="M2,2 L10,6 L2,10 Z" fill="#f0b31a"/></marker><pattern id="felt" width="24" height="24" patternUnits="userSpaceOnUse"><rect width="24" height="24" fill="#0f5924"/><path d="M0 12 H24 M12 0 V24" stroke="#1a6d31" stroke-width="1" opacity=".45"/></pattern><linearGradient id="wood" x1="0" x2="1"><stop offset="0" stop-color="#d4b487"/><stop offset="1" stop-color="#a7774b"/></linearGradient></defs><rect width="960" height="540" fill="url(#felt)"/><rect x="24" y="24" width="912" height="492" rx="20" fill="rgba(255,255,255,.08)" stroke="rgba(255,255,255,.28)"/><text x="480" y="58" text-anchor="middle" font-family="Arial, Helvetica, sans-serif" font-size="30" font-weight="800" fill="#fff">Scorpion</text><g><g><rect x="120" y="260" width="70" height="98" rx="8" fill="#d92832" stroke="#fff" stroke-width="3"/><text x="132" y="288" font-family="Arial" font-size="24" font-weight="700" fill="#fff"></text><path d="M136 310 h38 m-38 14 h38" stroke="#fff" stroke-width="5"/></g><g><rect x="120" y="296" width="70" height="98" rx="8" fill="#fffaf0" stroke="#273529" stroke-width="3"/><text x="132" y="324" font-family="Arial" font-size="24" font-weight="700" fill="#151515">7C</text></g></g><g><g><rect x="216" y="260" width="70" height="98" rx="8" fill="#d92832" stroke="#fff" stroke-width="3"/><text x="228" y="288" font-family="Arial" font-size="24" font-weight="700" fill="#fff"></text><path d="M232 310 h38 m-38 14 h38" stroke="#fff" stroke-width="5"/></g><g><rect x="216" y="288" width="70" height="98" rx="8" fill="#d92832" stroke="#fff" stroke-width="3"/><text x="228" y="316" font-family="Arial" font-size="24" font-weight="700" fill="#fff"></text><path d="M232 338 h38 m-38 14 h38" stroke="#fff" stroke-width="5"/></g></g><g><g><rect x="312" y="260" width="70" height="98" rx="8" fill="#d92832" stroke="#fff" stroke-width="3"/><text x="324" y="288" font-family="Arial" font-size="24" font-weight="700" fill="#fff"></text><path d="M328 310 h38 m-38 14 h38" stroke="#fff" stroke-width="5"/></g><g><rect x="312" y="296" width="70" height="98" rx="8" fill="#fffaf0" stroke="#273529" stroke-width="3"/><text x="324" y="324" font-family="Arial" font-size="24" font-weight="700" fill="#c9222e">KD</text></g></g><g><g><rect x="408" y="260" width="70" height="98" rx="8" fill="#d92832" stroke="#fff" stroke-width="3"/><text x="420" y="288" font-family="Arial" font-size="24" font-weight="700" fill="#fff"></text><path d="M424 310 h38 m-38 14 h38" stroke="#fff" stroke-width="5"/></g><g><rect x="408" y="288" width="70" height="98" rx="8" fill="#d92832" stroke="#fff" stroke-width="3"/><text x="420" y="316" font-family="Arial" font-size="24" font-weight="700" fill="#fff"></text><path d="M424 338 h38 m-38 14 h38" stroke="#fff" stroke-width="5"/></g><g><rect x="408" y="322" width="70" height="98" rx="8" fill="#fffaf0" stroke="#273529" stroke-width="3"/><text x="420" y="350" font-family="Arial" font-size="24" font-weight="700" fill="#c9222e">QH</text></g></g><g><g><rect x="504" y="260" width="70" height="98" rx="8" fill="#d92832" stroke="#fff" stroke-width="3"/><text x="516" y="288" font-family="Arial" font-size="24" font-weight="700" fill="#fff"></text><path d="M520 310 h38 m-38 14 h38" stroke="#fff" stroke-width="5"/></g><g><rect x="504" y="296" width="70" height="98" rx="8" fill="#fffaf0" stroke="#273529" stroke-width="3"/><text x="516" y="324" font-family="Arial" font-size="24" font-weight="700" fill="#c9222e">4H</text></g><g><rect x="504" y="322" width="70" height="98" rx="8" fill="#fffaf0" stroke="#273529" stroke-width="3"/><text x="516" y="350" font-family="Arial" font-size="24" font-weight="700" fill="#c9222e">5D</text></g></g><g><g><rect x="600" y="260" width="70" height="98" rx="8" fill="#d92832" stroke="#fff" stroke-width="3"/><text x="612" y="288" font-family="Arial" font-size="24" font-weight="700" fill="#fff"></text><path d="M616 310 h38 m-38 14 h38" stroke="#fff" stroke-width="5"/></g><g><rect x="600" y="288" width="70" height="98" rx="8" fill="#d92832" stroke="#fff" stroke-width="3"/><text x="612" y="316" font-family="Arial" font-size="24" font-weight="700" fill="#fff"></text><path d="M616 338 h38 m-38 14 h38" stroke="#fff" stroke-width="5"/></g><g><rect x="600" y="322" width="70" height="98" rx="8" fill="#fffaf0" stroke="#273529" stroke-width="3"/><text x="612" y="350" font-family="Arial" font-size="24" font-weight="700" fill="#c9222e">3H</text></g></g><g><g><rect x="696" y="260" width="70" height="98" rx="8" fill="#d92832" stroke="#fff" stroke-width="3"/><text x="708" y="288" font-family="Arial" font-size="24" font-weight="700" fill="#fff"></text><path d="M712 310 h38 m-38 14 h38" stroke="#fff" stroke-width="5"/></g><g><rect x="696" y="296" width="70" height="98" rx="8" fill="#fffaf0" stroke="#273529" stroke-width="3"/><text x="708" y="324" font-family="Arial" font-size="24" font-weight="700" fill="#151515">8S</text></g><g><rect x="696" y="322" width="70" height="98" rx="8" fill="#fffaf0" stroke="#273529" stroke-width="3"/><text x="708" y="350" font-family="Arial" font-size="24" font-weight="700" fill="#151515">6S</text></g></g><rect x="105" y="95" width="230" height="90" rx="12" fill="#eef7ff" stroke="#82b7d6" stroke-width="3"/><text x="220" y="147" text-anchor="middle" font-family="Arial, Helvetica, sans-serif" font-size="18" font-weight="700" fill="#214b2a">Reserve: 3 final cards</text><g><rect x="125" y="105" width="70" height="98" rx="8" fill="#d92832" stroke="#fff" stroke-width="3"/><text x="137" y="133" font-family="Arial" font-size="24" font-weight="700" fill="#fff"></text><path d="M141 155 h38 m-38 14 h38" stroke="#fff" stroke-width="5"/></g><g><rect x="205" y="105" width="70" height="98" rx="8" fill="#d92832" stroke="#fff" stroke-width="3"/><text x="217" y="133" font-family="Arial" font-size="24" font-weight="700" fill="#fff"></text><path d="M221 155 h38 m-38 14 h38" stroke="#fff" stroke-width="5"/></g><g><rect x="285" y="105" width="70" height="98" rx="8" fill="#d92832" stroke="#fff" stroke-width="3"/><text x="297" y="133" font-family="Arial" font-size="24" font-weight="700" fill="#fff"></text><path d="M301 155 h38 m-38 14 h38" stroke="#fff" stroke-width="5"/></g><rect x="610" y="92" width="240" height="90" rx="12" fill="#fff7e2" stroke="#ffd943" stroke-width="3"/><text x="730" y="144" text-anchor="middle" font-family="Arial, Helvetica, sans-serif" font-size="18" font-weight="700" fill="#214b2a">Complete K to A suit run</text><path d="M695 185 C 652.5 185, 652.5 300, 610 300" fill="none" stroke="#f0b31a" stroke-width="5" marker-end="url(#arrow)"/><text x="652.5" y="230.5" text-anchor="middle" font-family="Arial, Helvetica, sans-serif" font-size="17" font-weight="700" fill="#6b4500">auto-clears</text></svg>