<svg xmlns="http://www.w3.org/2000/svg" viewBox="0 0 960 540" role="img" aria-labelledby="title desc"><title id="title">Tri Towers visual guide</title><desc id="desc">Clear exposed tower cards one rank up or down from the waste. Kings and Aces connect.</desc><defs><marker id="arrow" markerWidth="12" markerHeight="12" refX="10" refY="6" orient="auto"><path d="M2,2 L10,6 L2,10 Z" fill="#f0b31a"/></marker><pattern id="felt" width="24" height="24" patternUnits="userSpaceOnUse"><rect width="24" height="24" fill="#0f5924"/><path d="M0 12 H24 M12 0 V24" stroke="#1a6d31" stroke-width="1" opacity=".45"/></pattern><linearGradient id="wood" x1="0" x2="1"><stop offset="0" stop-color="#d4b487"/><stop offset="1" stop-color="#a7774b"/></linearGradient></defs><rect width="960" height="540" fill="url(#felt)"/><rect x="24" y="24" width="912" height="492" rx="20" fill="rgba(255,255,255,.08)" stroke="rgba(255,255,255,.28)"/><text x="480" y="58" text-anchor="middle" font-family="Arial, Helvetica, sans-serif" font-size="30" font-weight="800" fill="#fff">Tri Towers</text><g><rect x="150" y="108" width="70" height="98" rx="8" fill="#d92832" stroke="#fff" stroke-width="3"/><text x="162" y="136" font-family="Arial" font-size="24" font-weight="700" fill="#fff"></text><path d="M166 158 h38 m-38 14 h38" stroke="#fff" stroke-width="5"/></g><g><rect x="128" y="156" width="70" height="98" rx="8" fill="#d92832" stroke="#fff" stroke-width="3"/><text x="140" y="184" font-family="Arial" font-size="24" font-weight="700" fill="#fff"></text><path d="M144 206 h38 m-38 14 h38" stroke="#fff" stroke-width="5"/></g><g><rect x="172" y="156" width="70" height="98" rx="8" fill="#d92832" stroke="#fff" stroke-width="3"/><text x="184" y="184" font-family="Arial" font-size="24" font-weight="700" fill="#fff"></text><path d="M188 206 h38 m-38 14 h38" stroke="#fff" stroke-width="5"/></g><g><rect x="106" y="204" width="70" height="98" rx="8" fill="#d92832" stroke="#fff" stroke-width="3"/><text x="118" y="232" font-family="Arial" font-size="24" font-weight="700" fill="#fff"></text><path d="M122 254 h38 m-38 14 h38" stroke="#fff" stroke-width="5"/></g><g><rect x="150" y="204" width="70" height="98" rx="8" fill="#d92832" stroke="#fff" stroke-width="3"/><text x="162" y="232" font-family="Arial" font-size="24" font-weight="700" fill="#fff"></text><path d="M166 254 h38 m-38 14 h38" stroke="#fff" stroke-width="5"/></g><g><rect x="194" y="204" width="70" height="98" rx="8" fill="#d92832" stroke="#fff" stroke-width="3"/><text x="206" y="232" font-family="Arial" font-size="24" font-weight="700" fill="#fff"></text><path d="M210 254 h38 m-38 14 h38" stroke="#fff" stroke-width="5"/></g><g><rect x="84" y="252" width="70" height="98" rx="8" fill="#fffaf0" stroke="#273529" stroke-width="3"/><text x="96" y="280" font-family="Arial" font-size="24" font-weight="700" fill="#151515">8C</text></g><g><rect x="128" y="252" width="70" height="98" rx="8" fill="#fffaf0" stroke="#273529" stroke-width="3"/><text x="140" y="280" font-family="Arial" font-size="24" font-weight="700" fill="#c9222e">9D</text></g><g><rect x="172" y="252" width="70" height="98" rx="8" fill="#fffaf0" stroke="#273529" stroke-width="3"/><text x="184" y="280" font-family="Arial" font-size="24" font-weight="700" fill="#151515">10S</text></g><g><rect x="216" y="252" width="70" height="98" rx="8" fill="#fffaf0" stroke="#273529" stroke-width="3"/><text x="228" y="280" font-family="Arial" font-size="24" font-weight="700" fill="#c9222e">JH</text></g><g><rect x="370" y="108" width="70" height="98" rx="8" fill="#d92832" stroke="#fff" stroke-width="3"/><text x="382" y="136" font-family="Arial" font-size="24" font-weight="700" fill="#fff"></text><path d="M386 158 h38 m-38 14 h38" stroke="#fff" stroke-width="5"/></g><g><rect x="348" y="156" width="70" height="98" rx="8" fill="#d92832" stroke="#fff" stroke-width="3"/><text x="360" y="184" font-family="Arial" font-size="24" font-weight="700" fill="#fff"></text><path d="M364 206 h38 m-38 14 h38" stroke="#fff" stroke-width="5"/></g><g><rect x="392" y="156" width="70" height="98" rx="8" fill="#d92832" stroke="#fff" stroke-width="3"/><text x="404" y="184" font-family="Arial" font-size="24" font-weight="700" fill="#fff"></text><path d="M408 206 h38 m-38 14 h38" stroke="#fff" stroke-width="5"/></g><g><rect x="326" y="204" width="70" height="98" rx="8" fill="#d92832" stroke="#fff" stroke-width="3"/><text x="338" y="232" font-family="Arial" font-size="24" font-weight="700" fill="#fff"></text><path d="M342 254 h38 m-38 14 h38" stroke="#fff" stroke-width="5"/></g><g><rect x="370" y="204" width="70" height="98" rx="8" fill="#d92832" stroke="#fff" stroke-width="3"/><text x="382" y="232" font-family="Arial" font-size="24" font-weight="700" fill="#fff"></text><path d="M386 254 h38 m-38 14 h38" stroke="#fff" stroke-width="5"/></g><g><rect x="414" y="204" width="70" height="98" rx="8" fill="#d92832" stroke="#fff" stroke-width="3"/><text x="426" y="232" font-family="Arial" font-size="24" font-weight="700" fill="#fff"></text><path d="M430 254 h38 m-38 14 h38" stroke="#fff" stroke-width="5"/></g><g><rect x="304" y="252" width="70" height="98" rx="8" fill="#fffaf0" stroke="#273529" stroke-width="3"/><text x="316" y="280" font-family="Arial" font-size="24" font-weight="700" fill="#151515">8C</text></g><g><rect x="348" y="252" width="70" height="98" rx="8" fill="#fffaf0" stroke="#273529" stroke-width="3"/><text x="360" y="280" font-family="Arial" font-size="24" font-weight="700" fill="#c9222e">9D</text></g><g><rect x="392" y="252" width="70" height="98" rx="8" fill="#fffaf0" stroke="#273529" stroke-width="3"/><text x="404" y="280" font-family="Arial" font-size="24" font-weight="700" fill="#151515">10S</text></g><g><rect x="436" y="252" width="70" height="98" rx="8" fill="#fffaf0" stroke="#273529" stroke-width="3"/><text x="448" y="280" font-family="Arial" font-size="24" font-weight="700" fill="#c9222e">JH</text></g><g><rect x="590" y="108" width="70" height="98" rx="8" fill="#d92832" stroke="#fff" stroke-width="3"/><text x="602" y="136" font-family="Arial" font-size="24" font-weight="700" fill="#fff"></text><path d="M606 158 h38 m-38 14 h38" stroke="#fff" stroke-width="5"/></g><g><rect x="568" y="156" width="70" height="98" rx="8" fill="#d92832" stroke="#fff" stroke-width="3"/><text x="580" y="184" font-family="Arial" font-size="24" font-weight="700" fill="#fff"></text><path d="M584 206 h38 m-38 14 h38" stroke="#fff" stroke-width="5"/></g><g><rect x="612" y="156" width="70" height="98" rx="8" fill="#d92832" stroke="#fff" stroke-width="3"/><text x="624" y="184" font-family="Arial" font-size="24" font-weight="700" fill="#fff"></text><path d="M628 206 h38 m-38 14 h38" stroke="#fff" stroke-width="5"/></g><g><rect x="546" y="204" width="70" height="98" rx="8" fill="#d92832" stroke="#fff" stroke-width="3"/><text x="558" y="232" font-family="Arial" font-size="24" font-weight="700" fill="#fff"></text><path d="M562 254 h38 m-38 14 h38" stroke="#fff" stroke-width="5"/></g><g><rect x="590" y="204" width="70" height="98" rx="8" fill="#d92832" stroke="#fff" stroke-width="3"/><text x="602" y="232" font-family="Arial" font-size="24" font-weight="700" fill="#fff"></text><path d="M606 254 h38 m-38 14 h38" stroke="#fff" stroke-width="5"/></g><g><rect x="634" y="204" width="70" height="98" rx="8" fill="#d92832" stroke="#fff" stroke-width="3"/><text x="646" y="232" font-family="Arial" font-size="24" font-weight="700" fill="#fff"></text><path d="M650 254 h38 m-38 14 h38" stroke="#fff" stroke-width="5"/></g><g><rect x="524" y="252" width="70" height="98" rx="8" fill="#fffaf0" stroke="#273529" stroke-width="3"/><text x="536" y="280" font-family="Arial" font-size="24" font-weight="700" fill="#151515">8C</text></g><g><rect x="568" y="252" width="70" height="98" rx="8" fill="#fffaf0" stroke="#273529" stroke-width="3"/><text x="580" y="280" font-family="Arial" font-size="24" font-weight="700" fill="#c9222e">9D</text></g><g><rect x="612" y="252" width="70" height="98" rx="8" fill="#fffaf0" stroke="#273529" stroke-width="3"/><text x="624" y="280" font-family="Arial" font-size="24" font-weight="700" fill="#151515">10S</text></g><g><rect x="656" y="252" width="70" height="98" rx="8" fill="#fffaf0" stroke="#273529" stroke-width="3"/><text x="668" y="280" font-family="Arial" font-size="24" font-weight="700" fill="#c9222e">JH</text></g><rect x="285" y="360" width="90" height="118" rx="12" fill="#fff7e2" stroke="#2f7d40" stroke-width="3"/><text x="330" y="426" text-anchor="middle" font-family="Arial, Helvetica, sans-serif" font-size="18" font-weight="700" fill="#214b2a">Stock</text><g><rect x="295" y="370" width="70" height="98" rx="8" fill="#d92832" stroke="#fff" stroke-width="3"/><text x="307" y="398" font-family="Arial" font-size="24" font-weight="700" fill="#fff"></text><path d="M311 420 h38 m-38 14 h38" stroke="#fff" stroke-width="5"/></g><rect x="460" y="360" width="90" height="118" rx="12" fill="#fff7e2" stroke="#2f7d40" stroke-width="3"/><text x="505" y="426" text-anchor="middle" font-family="Arial, Helvetica, sans-serif" font-size="18" font-weight="700" fill="#214b2a">Waste</text><g><rect x="470" y="370" width="70" height="98" rx="8" fill="#fffaf0" stroke="#273529" stroke-width="3"/><text x="482" y="398" font-family="Arial" font-size="24" font-weight="700" fill="#151515">KC</text></g><path d="M540 410 C 595 410, 595 210, 650 210" fill="none" stroke="#f0b31a" stroke-width="5" marker-end="url(#arrow)"/><text x="595" y="298" text-anchor="middle" font-family="Arial, Helvetica, sans-serif" font-size="17" font-weight="700" fill="#6b4500">up/down, A wraps K</text></svg>