<svg xmlns="http://www.w3.org/2000/svg" viewBox="0 0 960 540" role="img" aria-labelledby="title desc"><title id="title">Will O' The Wisp visual guide</title><desc id="desc">A smoother Spiderette start with fewer buried cards, but same-suit runs still matter.</desc><defs><marker id="arrow" markerWidth="12" markerHeight="12" refX="10" refY="6" orient="auto"><path d="M2,2 L10,6 L2,10 Z" fill="#f0b31a"/></marker><pattern id="felt" width="24" height="24" patternUnits="userSpaceOnUse"><rect width="24" height="24" fill="#0f5924"/><path d="M0 12 H24 M12 0 V24" stroke="#1a6d31" stroke-width="1" opacity=".45"/></pattern><linearGradient id="wood" x1="0" x2="1"><stop offset="0" stop-color="#d4b487"/><stop offset="1" stop-color="#a7774b"/></linearGradient></defs><rect width="960" height="540" fill="url(#felt)"/><rect x="24" y="24" width="912" height="492" rx="20" fill="rgba(255,255,255,.08)" stroke="rgba(255,255,255,.28)"/><text x="480" y="58" text-anchor="middle" font-family="Arial, Helvetica, sans-serif" font-size="30" font-weight="800" fill="#fff">Will O' The Wisp</text><g><g><rect x="130" y="250" width="70" height="98" rx="8" fill="#d92832" stroke="#fff" stroke-width="3"/><text x="142" y="278" font-family="Arial" font-size="24" font-weight="700" fill="#fff"></text><path d="M146 300 h38 m-38 14 h38" stroke="#fff" stroke-width="5"/></g><g><rect x="130" y="286" width="70" height="98" rx="8" fill="#fffaf0" stroke="#273529" stroke-width="3"/><text x="142" y="314" font-family="Arial" font-size="24" font-weight="700" fill="#151515">7C</text></g></g><g><g><rect x="226" y="250" width="70" height="98" rx="8" fill="#d92832" stroke="#fff" stroke-width="3"/><text x="238" y="278" font-family="Arial" font-size="24" font-weight="700" fill="#fff"></text><path d="M242 300 h38 m-38 14 h38" stroke="#fff" stroke-width="5"/></g><g><rect x="226" y="278" width="70" height="98" rx="8" fill="#d92832" stroke="#fff" stroke-width="3"/><text x="238" y="306" font-family="Arial" font-size="24" font-weight="700" fill="#fff"></text><path d="M242 328 h38 m-38 14 h38" stroke="#fff" stroke-width="5"/></g></g><g><g><rect x="322" y="250" width="70" height="98" rx="8" fill="#d92832" stroke="#fff" stroke-width="3"/><text x="334" y="278" font-family="Arial" font-size="24" font-weight="700" fill="#fff"></text><path d="M338 300 h38 m-38 14 h38" stroke="#fff" stroke-width="5"/></g><g><rect x="322" y="286" width="70" height="98" rx="8" fill="#fffaf0" stroke="#273529" stroke-width="3"/><text x="334" y="314" font-family="Arial" font-size="24" font-weight="700" fill="#c9222e">KD</text></g></g><g><g><rect x="418" y="250" width="70" height="98" rx="8" fill="#d92832" stroke="#fff" stroke-width="3"/><text x="430" y="278" font-family="Arial" font-size="24" font-weight="700" fill="#fff"></text><path d="M434 300 h38 m-38 14 h38" stroke="#fff" stroke-width="5"/></g><g><rect x="418" y="278" width="70" height="98" rx="8" fill="#d92832" stroke="#fff" stroke-width="3"/><text x="430" y="306" font-family="Arial" font-size="24" font-weight="700" fill="#fff"></text><path d="M434 328 h38 m-38 14 h38" stroke="#fff" stroke-width="5"/></g><g><rect x="418" y="312" width="70" height="98" rx="8" fill="#fffaf0" stroke="#273529" stroke-width="3"/><text x="430" y="340" font-family="Arial" font-size="24" font-weight="700" fill="#c9222e">QH</text></g></g><g><g><rect x="514" y="250" width="70" height="98" rx="8" fill="#d92832" stroke="#fff" stroke-width="3"/><text x="526" y="278" font-family="Arial" font-size="24" font-weight="700" fill="#fff"></text><path d="M530 300 h38 m-38 14 h38" stroke="#fff" stroke-width="5"/></g><g><rect x="514" y="286" width="70" height="98" rx="8" fill="#fffaf0" stroke="#273529" stroke-width="3"/><text x="526" y="314" font-family="Arial" font-size="24" font-weight="700" fill="#c9222e">4H</text></g><g><rect x="514" y="312" width="70" height="98" rx="8" fill="#fffaf0" stroke="#273529" stroke-width="3"/><text x="526" y="340" font-family="Arial" font-size="24" font-weight="700" fill="#c9222e">5D</text></g></g><g><g><rect x="610" y="250" width="70" height="98" rx="8" fill="#d92832" stroke="#fff" stroke-width="3"/><text x="622" y="278" font-family="Arial" font-size="24" font-weight="700" fill="#fff"></text><path d="M626 300 h38 m-38 14 h38" stroke="#fff" stroke-width="5"/></g><g><rect x="610" y="278" width="70" height="98" rx="8" fill="#d92832" stroke="#fff" stroke-width="3"/><text x="622" y="306" font-family="Arial" font-size="24" font-weight="700" fill="#fff"></text><path d="M626 328 h38 m-38 14 h38" stroke="#fff" stroke-width="5"/></g><g><rect x="610" y="312" width="70" height="98" rx="8" fill="#fffaf0" stroke="#273529" stroke-width="3"/><text x="622" y="340" font-family="Arial" font-size="24" font-weight="700" fill="#c9222e">3H</text></g></g><g><g><rect x="706" y="250" width="70" height="98" rx="8" fill="#d92832" stroke="#fff" stroke-width="3"/><text x="718" y="278" font-family="Arial" font-size="24" font-weight="700" fill="#fff"></text><path d="M722 300 h38 m-38 14 h38" stroke="#fff" stroke-width="5"/></g><g><rect x="706" y="286" width="70" height="98" rx="8" fill="#fffaf0" stroke="#273529" stroke-width="3"/><text x="718" y="314" font-family="Arial" font-size="24" font-weight="700" fill="#151515">8S</text></g><g><rect x="706" y="312" width="70" height="98" rx="8" fill="#fffaf0" stroke="#273529" stroke-width="3"/><text x="718" y="340" font-family="Arial" font-size="24" font-weight="700" fill="#151515">6S</text></g></g><rect x="90" y="92" width="110" height="118" rx="12" fill="#fff7e2" stroke="#2f7d40" stroke-width="3"/><text x="145" y="158" text-anchor="middle" font-family="Arial, Helvetica, sans-serif" font-size="18" font-weight="700" fill="#214b2a">Stock</text><g><rect x="110" y="105" width="70" height="98" rx="8" fill="#d92832" stroke="#fff" stroke-width="3"/><text x="122" y="133" font-family="Arial" font-size="24" font-weight="700" fill="#fff"></text><path d="M126 155 h38 m-38 14 h38" stroke="#fff" stroke-width="5"/></g><rect x="300" y="95" width="300" height="78" rx="12" fill="#fff7e2" stroke="#ffd943" stroke-width="3"/><text x="450" y="141" text-anchor="middle" font-family="Arial, Helvetica, sans-serif" font-size="18" font-weight="700" fill="#214b2a">Fewer buried cards</text><rect x="665" y="86" width="200" height="96" rx="12" fill="#eef7ff" stroke="#82b7d6" stroke-width="3"/><text x="765" y="141" text-anchor="middle" font-family="Arial, Helvetica, sans-serif" font-size="18" font-weight="700" fill="#214b2a">K Q J ... A clears</text><path d="M515 330 C 622.5 330, 622.5 185, 730 185" fill="none" stroke="#f0b31a" stroke-width="5" marker-end="url(#arrow)"/><text x="622.5" y="245.5" text-anchor="middle" font-family="Arial, Helvetica, sans-serif" font-size="17" font-weight="700" fill="#6b4500">same-suit run</text></svg>