<svg xmlns="http://www.w3.org/2000/svg" viewBox="0 0 960 540" role="img" aria-labelledby="title desc"><title id="title">Yukon visual guide</title><desc id="desc">Move any face-up card with its stack, uncover hidden cards, and fill empty spaces with Kings.</desc><defs><marker id="arrow" markerWidth="12" markerHeight="12" refX="10" refY="6" orient="auto"><path d="M2,2 L10,6 L2,10 Z" fill="#f0b31a"/></marker><pattern id="felt" width="24" height="24" patternUnits="userSpaceOnUse"><rect width="24" height="24" fill="#0f5924"/><path d="M0 12 H24 M12 0 V24" stroke="#1a6d31" stroke-width="1" opacity=".45"/></pattern><linearGradient id="wood" x1="0" x2="1"><stop offset="0" stop-color="#d4b487"/><stop offset="1" stop-color="#a7774b"/></linearGradient></defs><rect width="960" height="540" fill="url(#felt)"/><rect x="24" y="24" width="912" height="492" rx="20" fill="rgba(255,255,255,.08)" stroke="rgba(255,255,255,.28)"/><text x="480" y="58" text-anchor="middle" font-family="Arial, Helvetica, sans-serif" font-size="30" font-weight="800" fill="#fff">Yukon</text><rect x="610" y="85" width="80" height="112" rx="12" fill="#ffffff" stroke="#e4f0dc" stroke-width="3"/><g><rect x="615" y="93" width="70" height="98" rx="8" fill="#fffaf0" stroke="#273529" stroke-width="3"/><text x="627" y="121" font-family="Arial" font-size="24" font-weight="700" fill="#c9222e">AH</text></g><rect x="706" y="85" width="80" height="112" rx="12" fill="#ffffff" stroke="#e4f0dc" stroke-width="3"/><g><rect x="711" y="93" width="70" height="98" rx="8" fill="#fffaf0" stroke="#273529" stroke-width="3"/><text x="723" y="121" font-family="Arial" font-size="24" font-weight="700" fill="#c9222e">2H</text></g><rect x="802" y="85" width="80" height="112" rx="12" fill="#ffffff" stroke="#e4f0dc" stroke-width="3"/><g><rect x="807" y="93" width="70" height="98" rx="8" fill="#fffaf0" stroke="#273529" stroke-width="3"/><text x="819" y="121" font-family="Arial" font-size="24" font-weight="700" fill="#c9222e">3H</text></g><rect x="898" y="85" width="80" height="112" rx="12" fill="#ffffff" stroke="#e4f0dc" stroke-width="3"/><g><rect x="903" y="93" width="70" height="98" rx="8" fill="#fffaf0" stroke="#273529" stroke-width="3"/><text x="915" y="121" font-family="Arial" font-size="24" font-weight="700" fill="#c9222e">4H</text></g><rect x="610" y="207" width="368" height="28" rx="4" fill="#2d9650"/><text x="794" y="228" text-anchor="middle" font-family="Arial, Helvetica, sans-serif" font-size="17" font-weight="700" fill="#fff">Foundations</text><g><g><rect x="100" y="275" width="70" height="98" rx="8" fill="#d92832" stroke="#fff" stroke-width="3"/><text x="112" y="303" font-family="Arial" font-size="24" font-weight="700" fill="#fff"></text><path d="M116 325 h38 m-38 14 h38" stroke="#fff" stroke-width="5"/></g><g><rect x="100" y="311" width="70" height="98" rx="8" fill="#fffaf0" stroke="#273529" stroke-width="3"/><text x="112" y="339" font-family="Arial" font-size="24" font-weight="700" fill="#151515">7C</text></g></g><g><g><rect x="200" y="275" width="70" height="98" rx="8" fill="#d92832" stroke="#fff" stroke-width="3"/><text x="212" y="303" font-family="Arial" font-size="24" font-weight="700" fill="#fff"></text><path d="M216 325 h38 m-38 14 h38" stroke="#fff" stroke-width="5"/></g><g><rect x="200" y="303" width="70" height="98" rx="8" fill="#d92832" stroke="#fff" stroke-width="3"/><text x="212" y="331" font-family="Arial" font-size="24" font-weight="700" fill="#fff"></text><path d="M216 353 h38 m-38 14 h38" stroke="#fff" stroke-width="5"/></g></g><g><g><rect x="300" y="275" width="70" height="98" rx="8" fill="#d92832" stroke="#fff" stroke-width="3"/><text x="312" y="303" font-family="Arial" font-size="24" font-weight="700" fill="#fff"></text><path d="M316 325 h38 m-38 14 h38" stroke="#fff" stroke-width="5"/></g><g><rect x="300" y="311" width="70" height="98" rx="8" fill="#fffaf0" stroke="#273529" stroke-width="3"/><text x="312" y="339" font-family="Arial" font-size="24" font-weight="700" fill="#c9222e">KD</text></g></g><g><g><rect x="400" y="275" width="70" height="98" rx="8" fill="#d92832" stroke="#fff" stroke-width="3"/><text x="412" y="303" font-family="Arial" font-size="24" font-weight="700" fill="#fff"></text><path d="M416 325 h38 m-38 14 h38" stroke="#fff" stroke-width="5"/></g><g><rect x="400" y="303" width="70" height="98" rx="8" fill="#d92832" stroke="#fff" stroke-width="3"/><text x="412" y="331" font-family="Arial" font-size="24" font-weight="700" fill="#fff"></text><path d="M416 353 h38 m-38 14 h38" stroke="#fff" stroke-width="5"/></g><g><rect x="400" y="337" width="70" height="98" rx="8" fill="#fffaf0" stroke="#273529" stroke-width="3"/><text x="412" y="365" font-family="Arial" font-size="24" font-weight="700" fill="#c9222e">QH</text></g></g><g><g><rect x="500" y="275" width="70" height="98" rx="8" fill="#d92832" stroke="#fff" stroke-width="3"/><text x="512" y="303" font-family="Arial" font-size="24" font-weight="700" fill="#fff"></text><path d="M516 325 h38 m-38 14 h38" stroke="#fff" stroke-width="5"/></g><g><rect x="500" y="311" width="70" height="98" rx="8" fill="#fffaf0" stroke="#273529" stroke-width="3"/><text x="512" y="339" font-family="Arial" font-size="24" font-weight="700" fill="#c9222e">4H</text></g><g><rect x="500" y="337" width="70" height="98" rx="8" fill="#fffaf0" stroke="#273529" stroke-width="3"/><text x="512" y="365" font-family="Arial" font-size="24" font-weight="700" fill="#c9222e">5D</text></g></g><g><g><rect x="600" y="275" width="70" height="98" rx="8" fill="#d92832" stroke="#fff" stroke-width="3"/><text x="612" y="303" font-family="Arial" font-size="24" font-weight="700" fill="#fff"></text><path d="M616 325 h38 m-38 14 h38" stroke="#fff" stroke-width="5"/></g><g><rect x="600" y="303" width="70" height="98" rx="8" fill="#d92832" stroke="#fff" stroke-width="3"/><text x="612" y="331" font-family="Arial" font-size="24" font-weight="700" fill="#fff"></text><path d="M616 353 h38 m-38 14 h38" stroke="#fff" stroke-width="5"/></g><g><rect x="600" y="337" width="70" height="98" rx="8" fill="#fffaf0" stroke="#273529" stroke-width="3"/><text x="612" y="365" font-family="Arial" font-size="24" font-weight="700" fill="#c9222e">3H</text></g></g><g><g><rect x="700" y="275" width="70" height="98" rx="8" fill="#d92832" stroke="#fff" stroke-width="3"/><text x="712" y="303" font-family="Arial" font-size="24" font-weight="700" fill="#fff"></text><path d="M716 325 h38 m-38 14 h38" stroke="#fff" stroke-width="5"/></g><g><rect x="700" y="311" width="70" height="98" rx="8" fill="#fffaf0" stroke="#273529" stroke-width="3"/><text x="712" y="339" font-family="Arial" font-size="24" font-weight="700" fill="#151515">8S</text></g><g><rect x="700" y="337" width="70" height="98" rx="8" fill="#fffaf0" stroke="#273529" stroke-width="3"/><text x="712" y="365" font-family="Arial" font-size="24" font-weight="700" fill="#151515">6S</text></g></g><path d="M285 350 C 372.5 350, 372.5 295, 460 295" fill="none" stroke="#f0b31a" stroke-width="5" marker-end="url(#arrow)"/><text x="372.5" y="310.5" text-anchor="middle" font-family="Arial, Helvetica, sans-serif" font-size="17" font-weight="700" fill="#6b4500">move any face-up stack</text><rect x="80" y="95" width="180" height="72" rx="12" fill="#fff7e2" stroke="#ffd943" stroke-width="3"/><text x="170" y="138" text-anchor="middle" font-family="Arial, Helvetica, sans-serif" font-size="18" font-weight="700" fill="#214b2a">Build alternating colors</text><rect x="300" y="95" width="180" height="72" rx="12" fill="#fff7e2" stroke="#ffd943" stroke-width="3"/><text x="390" y="138" text-anchor="middle" font-family="Arial, Helvetica, sans-serif" font-size="18" font-weight="700" fill="#214b2a">King fills empty spaces</text></svg>